<svg width="48" height="47" viewBox="0 0 48 47" fill="none" xmlns="http://www.w3.org/2000/svg">
<path d="M31.3437 23.4998C31.3437 19.3809 27.9926 16.0298 23.8737 16.0298C19.7549 16.0298 16.4037 19.3809 16.4037 23.4998C16.4037 27.6186 19.7549 30.9697 23.8737 30.9697C27.9926 30.9697 31.3437 27.6186 31.3437 23.4998ZM23.8738 24.818C23.1469 24.818 22.5556 24.2266 22.5556 23.4998C22.5556 22.7729 23.1469 22.1815 23.8738 22.1815C24.6007 22.1815 25.192 22.7729 25.192 23.4998C25.192 24.2266 24.6007 24.818 23.8738 24.818Z" fill="#F15025"/>
<path d="M21.0622 28.471C21.8927 28.9424 22.8525 29.2121 23.8738 29.2121C24.8951 29.2121 25.8549 28.9424 26.6854 28.471M25.9723 25.7464C26.7909 26.1039 27.5143 26.6647 28.0629 27.3794C29.0077 26.36 29.5861 24.9963 29.5861 23.4998C29.5861 20.3498 27.0234 17.7874 23.8738 17.7874C20.7239 17.7874 18.1615 20.3502 18.1615 23.4998C18.1615 24.9963 18.7402 26.3596 19.685 27.3791C20.2336 26.6648 20.957 26.1036 21.7753 25.7464C21.1743 25.1846 20.798 24.3854 20.798 23.4998C20.798 21.8037 22.1777 20.4239 23.8738 20.4239M31.3437 23.4998C31.3437 19.3809 27.9926 16.0298 23.8737 16.0298C19.7549 16.0298 16.4037 19.3809 16.4037 23.4998C16.4037 27.6186 19.7549 30.9697 23.8737 30.9697C27.9926 30.9697 31.3437 27.6186 31.3437 23.4998ZM23.8738 24.818C23.1469 24.818 22.5556 24.2266 22.5556 23.4998C22.5556 22.7729 23.1469 22.1815 23.8738 22.1815C24.6007 22.1815 25.192 22.7729 25.192 23.4998C25.192 24.2266 24.6007 24.818 23.8738 24.818Z" stroke="#F15025" stroke-width="2"/>
<path d="M36.1772 23.4997C36.1772 16.7155 30.6579 11.1967 23.8741 11.1967C17.0904 11.1967 11.5711 16.7159 11.5711 23.4997C11.5711 30.2835 17.0904 35.8027 23.8741 35.8027C30.6579 35.8027 36.1772 30.2835 36.1772 23.4997ZM13.3275 23.4997C13.3275 17.6848 18.0584 12.9539 23.8733 12.9539C29.6883 12.9539 34.4191 17.6848 34.4191 23.4997C34.4191 29.3146 29.6883 34.0455 23.8733 34.0455C18.0584 34.0455 13.3275 29.3146 13.3275 23.4997Z" fill="#3734A9" stroke="#F15025" stroke-width="2"/>
<path d="M6.6152 14.5499C6.75362 14.6299 6.90459 14.6679 7.05367 14.6679C7.35748 14.6679 7.65283 14.5104 7.81542 14.2282C10.6088 9.38998 15.5022 6.04626 21.0023 5.1801C21.4467 6.33327 22.5663 7.15339 23.8738 7.15339C25.5699 7.15339 26.9496 5.77364 26.9496 4.07755C26.9496 2.38146 25.5699 1.00171 23.8738 1.00171C22.4025 1.00171 21.1689 2.0403 20.8679 3.42254C17.9641 3.85881 15.1522 4.93383 12.7013 6.54957C10.0792 8.27803 7.86339 10.6291 6.29313 13.3488C6.05051 13.7694 6.19457 14.3067 6.61484 14.5493L6.6152 14.5499ZM23.8742 2.7595C24.6011 2.7595 25.1924 3.35082 25.1924 4.0777C25.1924 4.80459 24.6011 5.39591 23.8742 5.39591C23.1473 5.39591 22.556 4.80459 22.556 4.0777C22.556 3.35082 23.1473 2.7595 23.8742 2.7595Z" fill="#3734A9" stroke="#F15025" stroke-width="2"/>
<path d="M14.6023 39.5582C9.7638 36.7648 6.41959 31.8714 5.55504 26.3713C6.70788 25.9272 7.52833 24.8073 7.52833 23.4998C7.52833 21.8037 6.14857 20.424 4.45249 20.424C2.7564 20.424 1.37665 21.8037 1.37665 23.4998C1.37665 24.9711 2.41524 26.2047 3.79748 26.5053C4.23375 29.4092 5.30877 32.2211 6.9245 34.672C8.65297 37.294 11.0041 39.5099 13.7237 41.0801C13.8621 41.1602 14.0131 41.1982 14.1622 41.1982C14.466 41.1982 14.7613 41.0406 14.9239 40.7584C15.1665 40.3382 15.0225 39.8008 14.6022 39.5579L14.6023 39.5582ZM3.13412 23.4996C3.13412 22.7727 3.72544 22.1814 4.45233 22.1814C5.17921 22.1814 5.77053 22.7727 5.77053 23.4996C5.77053 24.2265 5.17921 24.8178 4.45233 24.8178C3.72544 24.8178 3.13412 24.2265 3.13412 23.4996Z" fill="#3734A9" stroke="#F15025" stroke-width="2"/>
<path d="M41.1328 32.4501C40.7122 32.2075 40.1748 32.3516 39.9323 32.7718C37.1388 37.6104 32.2454 40.9546 26.7454 41.8199C26.3013 40.6671 25.1814 39.8466 23.8739 39.8466C22.1778 39.8466 20.798 41.2264 20.798 42.9225C20.798 44.6186 22.1778 45.9983 23.8739 45.9983C25.3452 45.9983 26.5787 44.9597 26.8797 43.5775C29.7836 43.1412 32.5955 42.0662 35.0464 40.4504C37.6684 38.722 39.8843 36.3709 41.4546 33.6512C41.6972 33.231 41.5531 32.6933 41.1328 32.4507L41.1328 32.4501ZM23.8738 44.2405C23.1469 44.2405 22.5556 43.6492 22.5556 42.9223C22.5556 42.1954 23.1469 41.6041 23.8738 41.6041C24.6007 41.6041 25.192 42.1954 25.192 42.9223C25.192 43.6492 24.6007 44.2405 23.8738 44.2405Z" fill="#3734A9" stroke="#F15025" stroke-width="2"/>
<path d="M43.9508 20.494C43.5145 17.5902 42.4395 14.7783 40.8238 12.3274C39.0953 9.70535 36.7442 7.48948 34.0245 5.91922C33.604 5.67661 33.0666 5.82067 32.8241 6.24093C32.5815 6.6612 32.7255 7.19853 33.1458 7.44143C37.9843 10.2348 41.3285 15.1283 42.1939 20.6283C41.041 21.0724 40.2206 22.1923 40.2206 23.4998C40.2206 25.1959 41.6003 26.5757 43.2964 26.5757C44.9925 26.5757 46.3722 25.1959 46.3722 23.4998C46.3722 22.0285 45.3337 20.7949 43.9514 20.494L43.9508 20.494ZM43.2958 24.8178C42.5688 24.8178 41.9775 24.2265 41.9775 23.4996C41.9775 22.7727 42.5689 22.1814 43.2958 22.1814C44.0226 22.1814 44.614 22.7727 44.614 23.4996C44.614 24.2265 44.0226 24.8178 43.2958 24.8178Z" fill="#3734A9" stroke="#F15025" stroke-width="2"/>
</svg>
