<svg width="43" height="38" viewBox="0 0 43 38" fill="none" xmlns="http://www.w3.org/2000/svg">
<path d="M2.75 9.125V7.25C2.25272 7.25 1.77581 7.44754 1.42417 7.79918C1.07254 8.15081 0.875 8.62772 0.875 9.125H2.75ZM23.375 9.125H25.25C25.25 8.62772 25.0525 8.15081 24.7008 7.79918C24.3492 7.44754 23.8723 7.25 23.375 7.25V9.125ZM23.375 12.875V11C22.8777 11 22.4008 11.1975 22.0492 11.5492C21.6975 11.9008 21.5 12.3777 21.5 12.875H23.375ZM2.75 11H23.375V7.25H2.75V11ZM21.5 9.125V31.625H25.25V9.125H21.5ZM4.625 27.875V9.125H0.875V27.875H4.625ZM23.375 14.75H32.75V11H23.375V14.75ZM38.375 20.375V27.875H42.125V20.375H38.375ZM25.25 31.625V12.875H21.5V31.625H25.25ZM34.0756 32.9506C33.724 33.3021 33.2472 33.4996 32.75 33.4996C32.2528 33.4996 31.776 33.3021 31.4244 32.9506L28.7731 35.6019C29.828 36.6564 31.2585 37.2488 32.75 37.2488C34.2415 37.2488 35.672 36.6564 36.7269 35.6019L34.0756 32.9506ZM31.4244 30.2994C31.776 29.9479 32.2528 29.7504 32.75 29.7504C33.2472 29.7504 33.724 29.9479 34.0756 30.2994L36.7269 27.6481C35.672 26.5936 34.2415 26.0012 32.75 26.0012C31.2585 26.0012 29.828 26.5936 28.7731 27.6481L31.4244 30.2994ZM11.5756 32.9506C11.224 33.3021 10.7472 33.4996 10.25 33.4996C9.75282 33.4996 9.27599 33.3021 8.92438 32.9506L6.27312 35.6019C7.32797 36.6564 8.75845 37.2488 10.25 37.2488C11.7415 37.2488 13.172 36.6564 14.2269 35.6019L11.5756 32.9506ZM8.92438 30.2994C9.27599 29.9479 9.75282 29.7504 10.25 29.7504C10.7472 29.7504 11.224 29.9479 11.5756 30.2994L14.2269 27.6481C13.172 26.5936 11.7415 26.0012 10.25 26.0012C8.75845 26.0012 7.32797 26.5936 6.27312 27.6481L8.92438 30.2994ZM34.0756 30.2994C34.4431 30.665 34.625 31.1431 34.625 31.625H38.375C38.375 30.1887 37.8256 28.745 36.7269 27.6481L34.0756 30.2994ZM34.625 31.625C34.6256 31.8713 34.5773 32.1153 34.483 32.3428C34.3887 32.5703 34.2502 32.7769 34.0756 32.9506L36.7269 35.6019C37.2497 35.08 37.6645 34.4601 37.9473 33.7777C38.2301 33.0953 38.3755 32.3637 38.375 31.625H34.625ZM29 29.75H23.375V33.5H29V29.75ZM31.4244 32.9506C31.2498 32.7769 31.1113 32.5703 31.017 32.3428C30.9227 32.1153 30.8744 31.8713 30.875 31.625H27.125C27.125 33.0613 27.6744 34.505 28.7731 35.6019L31.4244 32.9506ZM30.875 31.625C30.874 31.3786 30.9221 31.1345 31.0164 30.907C31.1107 30.6794 31.2494 30.4728 31.4244 30.2994L28.7731 27.6481C28.2503 28.17 27.8355 28.7899 27.5527 29.4723C27.2699 30.1547 27.1245 30.8863 27.125 31.625H30.875ZM8.92438 32.9506C8.74975 32.7769 8.61129 32.5703 8.51699 32.3428C8.4227 32.1153 8.37444 31.8713 8.375 31.625H4.625C4.625 33.0613 5.17438 34.505 6.27312 35.6019L8.92438 32.9506ZM8.375 31.625C8.37402 31.3786 8.42209 31.1345 8.51641 30.907C8.61073 30.6794 8.74942 30.4728 8.92438 30.2994L6.27312 27.6481C5.75026 28.17 5.33553 28.7899 5.05271 29.4723C4.76989 30.1547 4.62454 30.8863 4.625 31.625H8.375ZM23.375 29.75H14V33.5H23.375V29.75ZM11.5756 30.2994C11.9431 30.665 12.125 31.1431 12.125 31.625H15.875C15.875 30.1887 15.3256 28.745 14.2269 27.6481L11.5756 30.2994ZM12.125 31.625C12.1256 31.8713 12.0773 32.1153 11.983 32.3428C11.8887 32.5703 11.7502 32.7769 11.5756 32.9506L14.2269 35.6019C14.7497 35.08 15.1645 34.4601 15.4473 33.7777C15.7301 33.0953 15.8755 32.3637 15.875 31.625H12.125ZM38.375 27.875C38.375 28.3723 38.1775 28.8492 37.8258 29.2008C37.4742 29.5525 36.9973 29.75 36.5 29.75V33.5C37.9918 33.5 39.4226 32.9074 40.4775 31.8525C41.5324 30.7976 42.125 29.3668 42.125 27.875H38.375ZM32.75 14.75C34.2418 14.75 35.6726 15.3426 36.7275 16.3975C37.7824 17.4524 38.375 18.8832 38.375 20.375H42.125C42.125 19.1439 41.8825 17.9248 41.4114 16.7873C40.9402 15.6499 40.2497 14.6164 39.3791 13.7459C38.5086 12.8753 37.4751 12.1848 36.3377 11.7136C35.2002 11.2425 33.9811 11 32.75 11V14.75ZM0.875 27.875C0.875 29.3668 1.46763 30.7976 2.52252 31.8525C3.57742 32.9074 5.00816 33.5 6.5 33.5V29.75C6.00272 29.75 5.52581 29.5525 5.17417 29.2008C4.82254 28.8492 4.625 28.3723 4.625 27.875H0.875Z" fill="#F15025"/>
<path opacity="0.16" d="M23.375 9.125H2.75V27.875C2.75 28.8696 3.14509 29.8234 3.84835 30.5266C4.55161 31.2299 5.50544 31.625 6.5 31.625C6.5 30.6304 6.89509 29.6766 7.59835 28.9734C8.30161 28.2701 9.25544 27.875 10.25 27.875C11.2446 27.875 12.1984 28.2701 12.9017 28.9734C13.6049 29.6766 14 30.6304 14 31.625H23.375V9.125Z" fill="#F15025"/>
<path d="M13.0625 7.25C13.0625 5.75816 12.4699 4.32742 11.415 3.27252C10.3601 2.21763 8.92934 1.625 7.4375 1.625C6.94022 1.625 6.46331 1.82254 6.11167 2.17417C5.76004 2.52581 5.5625 3.00272 5.5625 3.5C5.5625 4.99184 6.15513 6.42258 7.21002 7.47748C8.26492 8.53237 9.69566 9.125 11.1875 9.125H13.0625M13.0625 7.25V9.125M13.0625 7.25C13.0625 5.75816 13.6551 4.32742 14.71 3.27252C15.7649 2.21763 17.1957 1.625 18.6875 1.625C19.1848 1.625 19.6617 1.82254 20.0133 2.17417C20.365 2.52581 20.5625 3.00272 20.5625 3.5C20.5625 4.99184 19.9699 6.42258 18.915 7.47748C17.8601 8.53237 16.4293 9.125 14.9375 9.125H13.0625" stroke="#F15025" stroke-width="2" stroke-linejoin="round"/>
</svg>
