<svg width="27" height="25" viewBox="0 0 27 25" fill="none" xmlns="http://www.w3.org/2000/svg">
<path d="M13.3683 24.9522L11.8578 23.5658C9.58943 21.4646 7.71355 19.6589 6.2302 18.1488C4.74687 16.6387 3.57144 15.2948 2.70391 14.117C1.83635 12.9392 1.2302 11.8649 0.885475 10.894C0.540723 9.9231 0.368347 8.93788 0.368347 7.93832C0.368347 5.95535 1.02317 4.29526 2.33282 2.95804C3.64247 1.62082 5.26834 0.952209 7.21044 0.952209C8.40518 0.952209 9.53414 1.23749 10.5973 1.80805C11.6604 2.37858 12.5841 3.19677 13.3683 4.2626C14.1526 3.19677 15.0763 2.37858 16.1394 1.80805C17.2026 1.23749 18.3315 0.952209 19.5263 0.952209C21.4684 0.952209 23.0942 1.62082 24.4039 2.95804C25.7135 4.29526 26.3683 5.95535 26.3683 7.93832C26.3683 8.93788 26.196 9.9231 25.8512 10.894C25.5065 11.8649 24.9003 12.9392 24.0328 14.117C23.1653 15.2948 21.992 16.6387 20.5131 18.1488C19.0341 19.6589 17.156 21.4646 14.8788 23.5658L13.3683 24.9522ZM13.3683 22.1202C15.5578 20.1085 17.3596 18.3844 18.7736 16.9478C20.1877 15.5111 21.3052 14.263 22.1263 13.2035C22.9473 12.1439 23.5175 11.203 23.8368 10.3808C24.1561 9.55856 24.3157 8.74441 24.3157 7.93832C24.3157 6.54109 23.8596 5.37673 22.9473 4.44525C22.035 3.51376 20.8947 3.04802 19.5263 3.04802C18.4455 3.04802 17.4469 3.36106 16.5302 3.98713C15.6135 4.61318 14.8877 5.48422 14.3526 6.60023H12.3841C11.8403 5.47527 11.1122 4.60199 10.1999 3.98039C9.28765 3.35881 8.29115 3.04802 7.21044 3.04802C5.85079 3.04802 4.71263 3.51376 3.79594 4.44525C2.87928 5.37673 2.42095 6.54109 2.42095 7.93832C2.42095 8.74441 2.5806 9.55856 2.8999 10.3808C3.2192 11.203 3.78937 12.1439 4.61043 13.2035C5.43148 14.263 6.54903 15.5089 7.96307 16.9411C9.37711 18.3732 11.1789 20.0996 13.3683 22.1202Z" fill="black"/>
</svg>
