<svg width="167" height="47" viewBox="0 0 167 47" fill="none" xmlns="http://www.w3.org/2000/svg">
<path d="M31.3437 23.4998C31.3437 19.3809 27.9926 16.0298 23.8737 16.0298C19.7549 16.0298 16.4037 19.3809 16.4037 23.4998C16.4037 27.6186 19.7549 30.9697 23.8737 30.9697C27.9926 30.9697 31.3437 27.6186 31.3437 23.4998ZM23.8738 24.818C23.1469 24.818 22.5556 24.2266 22.5556 23.4998C22.5556 22.7729 23.1469 22.1815 23.8738 22.1815C24.6007 22.1815 25.192 22.7729 25.192 23.4998C25.192 24.2266 24.6007 24.818 23.8738 24.818Z" fill="#F15025"/>
<path d="M21.0622 28.471C21.8927 28.9424 22.8525 29.2121 23.8738 29.2121C24.8951 29.2121 25.8549 28.9424 26.6854 28.471M25.9723 25.7464C26.7909 26.1039 27.5143 26.6647 28.0629 27.3794C29.0077 26.36 29.5861 24.9963 29.5861 23.4998C29.5861 20.3498 27.0234 17.7874 23.8738 17.7874C20.7239 17.7874 18.1615 20.3502 18.1615 23.4998C18.1615 24.9963 18.7402 26.3596 19.685 27.3791C20.2336 26.6648 20.957 26.1036 21.7753 25.7464C21.1743 25.1846 20.798 24.3854 20.798 23.4998C20.798 21.8037 22.1777 20.4239 23.8738 20.4239M31.3437 23.4998C31.3437 19.3809 27.9926 16.0298 23.8737 16.0298C19.7549 16.0298 16.4037 19.3809 16.4037 23.4998C16.4037 27.6186 19.7549 30.9697 23.8737 30.9697C27.9926 30.9697 31.3437 27.6186 31.3437 23.4998ZM23.8738 24.818C23.1469 24.818 22.5556 24.2266 22.5556 23.4998C22.5556 22.7729 23.1469 22.1815 23.8738 22.1815C24.6007 22.1815 25.192 22.7729 25.192 23.4998C25.192 24.2266 24.6007 24.818 23.8738 24.818Z" stroke="#F15025" stroke-width="2"/>
<path d="M36.1772 23.4997C36.1772 16.7155 30.6579 11.1967 23.8741 11.1967C17.0904 11.1967 11.5711 16.7159 11.5711 23.4997C11.5711 30.2835 17.0904 35.8027 23.8741 35.8027C30.6579 35.8027 36.1772 30.2835 36.1772 23.4997ZM13.3275 23.4997C13.3275 17.6848 18.0584 12.9539 23.8733 12.9539C29.6883 12.9539 34.4191 17.6848 34.4191 23.4997C34.4191 29.3146 29.6883 34.0455 23.8733 34.0455C18.0584 34.0455 13.3275 29.3146 13.3275 23.4997Z" fill="#3734A9" stroke="#F15025" stroke-width="2"/>
<path d="M6.6152 14.5499C6.75362 14.6299 6.90459 14.6679 7.05367 14.6679C7.35748 14.6679 7.65283 14.5104 7.81542 14.2282C10.6088 9.38998 15.5022 6.04626 21.0023 5.1801C21.4467 6.33327 22.5663 7.15339 23.8738 7.15339C25.5699 7.15339 26.9496 5.77364 26.9496 4.07755C26.9496 2.38146 25.5699 1.00171 23.8738 1.00171C22.4025 1.00171 21.1689 2.0403 20.8679 3.42254C17.9641 3.85881 15.1522 4.93383 12.7013 6.54957C10.0792 8.27803 7.86339 10.6291 6.29313 13.3488C6.05051 13.7694 6.19457 14.3067 6.61484 14.5493L6.6152 14.5499ZM23.8742 2.7595C24.6011 2.7595 25.1924 3.35082 25.1924 4.0777C25.1924 4.80459 24.6011 5.39591 23.8742 5.39591C23.1473 5.39591 22.556 4.80459 22.556 4.0777C22.556 3.35082 23.1473 2.7595 23.8742 2.7595Z" fill="#3734A9" stroke="#F15025" stroke-width="2"/>
<path d="M14.6023 39.5582C9.7638 36.7648 6.41959 31.8714 5.55504 26.3713C6.70788 25.9272 7.52833 24.8073 7.52833 23.4998C7.52833 21.8037 6.14857 20.424 4.45249 20.424C2.7564 20.424 1.37665 21.8037 1.37665 23.4998C1.37665 24.9711 2.41524 26.2047 3.79748 26.5053C4.23375 29.4092 5.30877 32.2211 6.9245 34.672C8.65297 37.294 11.0041 39.5099 13.7237 41.0801C13.8621 41.1602 14.0131 41.1982 14.1622 41.1982C14.466 41.1982 14.7613 41.0406 14.9239 40.7584C15.1665 40.3382 15.0225 39.8008 14.6022 39.5579L14.6023 39.5582ZM3.13412 23.4996C3.13412 22.7727 3.72544 22.1814 4.45233 22.1814C5.17921 22.1814 5.77053 22.7727 5.77053 23.4996C5.77053 24.2265 5.17921 24.8178 4.45233 24.8178C3.72544 24.8178 3.13412 24.2265 3.13412 23.4996Z" fill="#3734A9" stroke="#F15025" stroke-width="2"/>
<path d="M41.1328 32.4501C40.7122 32.2075 40.1748 32.3516 39.9323 32.7718C37.1388 37.6104 32.2454 40.9546 26.7454 41.8199C26.3013 40.6671 25.1814 39.8466 23.8739 39.8466C22.1778 39.8466 20.798 41.2264 20.798 42.9225C20.798 44.6186 22.1778 45.9983 23.8739 45.9983C25.3452 45.9983 26.5787 44.9597 26.8797 43.5775C29.7836 43.1412 32.5955 42.0662 35.0464 40.4504C37.6684 38.722 39.8843 36.3709 41.4546 33.6512C41.6972 33.231 41.5531 32.6933 41.1328 32.4507L41.1328 32.4501ZM23.8738 44.2405C23.1469 44.2405 22.5556 43.6492 22.5556 42.9223C22.5556 42.1954 23.1469 41.6041 23.8738 41.6041C24.6007 41.6041 25.192 42.1954 25.192 42.9223C25.192 43.6492 24.6007 44.2405 23.8738 44.2405Z" fill="#3734A9" stroke="#F15025" stroke-width="2"/>
<path d="M43.9508 20.494C43.5145 17.5902 42.4395 14.7783 40.8238 12.3274C39.0953 9.70535 36.7442 7.48948 34.0245 5.91922C33.604 5.67661 33.0666 5.82067 32.8241 6.24093C32.5815 6.6612 32.7255 7.19853 33.1458 7.44143C37.9843 10.2348 41.3285 15.1283 42.1939 20.6283C41.041 21.0724 40.2206 22.1923 40.2206 23.4998C40.2206 25.1959 41.6003 26.5757 43.2964 26.5757C44.9925 26.5757 46.3722 25.1959 46.3722 23.4998C46.3722 22.0285 45.3337 20.7949 43.9514 20.494L43.9508 20.494ZM43.2958 24.8178C42.5688 24.8178 41.9775 24.2265 41.9775 23.4996C41.9775 22.7727 42.5689 22.1814 43.2958 22.1814C44.0226 22.1814 44.614 22.7727 44.614 23.4996C44.614 24.2265 44.0226 24.8178 43.2958 24.8178Z" fill="#3734A9" stroke="#F15025" stroke-width="2"/>
<g filter="url(#filter0_d_102_18)">
<path d="M65.7083 34.1217C65.0843 33.9457 64.5723 33.5617 64.1723 32.9697C63.7723 32.3777 63.4923 31.7537 63.3323 31.0977C63.3003 30.9537 63.3323 30.7137 63.4283 30.3777C63.5403 30.0417 63.6923 29.6897 63.8843 29.3217C64.0923 28.9537 64.3243 28.6577 64.5803 28.4337C64.6763 28.6737 64.8043 28.8897 64.9643 29.0817C65.1243 29.2737 65.3003 29.3937 65.4923 29.4417C65.6843 29.4897 65.8603 29.4177 66.0203 29.2257C66.1483 29.0497 66.2363 28.6817 66.2843 28.1217C66.3483 27.5617 66.3723 26.8737 66.3563 26.0577C66.3563 25.2257 66.3323 24.3377 66.2843 23.3937C66.2363 22.4497 66.1803 21.5137 66.1163 20.5857C66.0523 19.6417 65.9803 18.7777 65.9003 17.9937C65.8363 17.1937 65.7723 16.5377 65.7083 16.0257C65.6603 15.4977 65.6283 15.1777 65.6123 15.0657C65.8523 15.0177 66.2203 15.0097 66.7163 15.0417C67.2283 15.0577 67.7643 15.1377 68.3243 15.2817C68.8843 15.4097 69.3723 15.6337 69.7883 15.9537C70.2043 16.2577 70.4443 16.6817 70.5083 17.2257C70.5403 17.5297 70.5643 18.0417 70.5803 18.7617C70.6123 19.4817 70.6363 20.3217 70.6523 21.2817C70.6683 22.2257 70.6763 23.2177 70.6763 24.2577C70.6923 25.2817 70.6923 26.2657 70.6763 27.2097C70.6763 28.1537 70.6683 28.9777 70.6523 29.6817C70.6363 30.3857 70.6123 30.8737 70.5803 31.1457C70.5163 31.8337 70.2443 32.4497 69.7643 32.9937C69.3003 33.5217 68.7083 33.8977 67.9883 34.1217C67.2843 34.3457 66.5243 34.3457 65.7083 34.1217ZM91.1415 23.7057C91.3015 25.1937 91.2295 26.5137 90.9255 27.6657C90.6375 28.8177 90.1815 29.8177 89.5575 30.6657C88.9495 31.4977 88.2295 32.1857 87.3975 32.7297C86.5655 33.2577 85.6775 33.6577 84.7335 33.9297C83.8055 34.1857 82.8855 34.3137 81.9735 34.3137C81.0615 34.3137 80.1335 34.1937 79.1895 33.9537C78.2455 33.7137 77.3495 33.3377 76.5015 32.8257C75.6695 32.3137 74.9335 31.6497 74.2935 30.8337C73.6695 30.0177 73.2055 29.0497 72.9015 27.9297C72.5975 26.7937 72.5255 25.4817 72.6855 23.9937C72.8135 22.7137 73.1335 21.5217 73.6455 20.4177C74.1575 19.2977 74.8215 18.3297 75.6375 17.5137C76.4535 16.6817 77.3895 16.0417 78.4455 15.5937C79.5015 15.1297 80.6295 14.9137 81.8295 14.9457C81.9095 14.9457 82.0295 14.8897 82.1895 14.7777C82.3495 14.6497 82.5655 14.5297 82.8375 14.4177C83.1095 14.3057 83.4375 14.2657 83.8215 14.2977C84.5415 14.3617 85.3015 14.6577 86.1015 15.1857C86.9015 15.7137 87.6615 16.4177 88.3815 17.2977C89.1015 18.1617 89.7095 19.1457 90.2055 20.2497C90.7015 21.3537 91.0135 22.5057 91.1415 23.7057ZM82.0455 29.8737C82.6055 29.8577 83.1335 29.7777 83.6295 29.6337C84.1415 29.4897 84.5975 29.2257 84.9975 28.8417C85.3975 28.4577 85.7175 27.9137 85.9575 27.2097C86.2135 26.5057 86.3495 25.6017 86.3655 24.4977C86.3815 23.7297 86.2135 22.9857 85.8615 22.2657C85.5095 21.5457 85.0215 20.9377 84.3975 20.4417C83.7735 19.9297 83.0615 19.6337 82.2615 19.5537C81.3975 19.4577 80.6615 19.5457 80.0535 19.8177C79.4455 20.0737 78.9415 20.4577 78.5415 20.9697C78.1575 21.4657 77.8615 22.0257 77.6535 22.6497C77.4455 23.2737 77.3175 23.9057 77.2695 24.5457C77.1735 25.6497 77.2775 26.5537 77.5815 27.2577C77.8855 27.9617 78.2935 28.5057 78.8055 28.8897C79.3175 29.2737 79.8615 29.5377 80.4375 29.6817C81.0295 29.8257 81.5655 29.8897 82.0455 29.8737ZM103.129 29.6337C103.353 29.6017 103.633 29.5617 103.969 29.5137C104.321 29.4657 104.649 29.4097 104.953 29.3457C105.273 29.2657 105.489 29.1777 105.601 29.0817C105.809 29.2577 105.945 29.6177 106.009 30.1617C106.089 30.6897 106.065 31.2417 105.937 31.8177C105.841 32.3137 105.673 32.7777 105.433 33.2097C105.193 33.6417 104.849 33.9057 104.401 34.0017C104.017 34.0817 103.577 34.1297 103.081 34.1457C102.585 34.1617 102.081 34.1617 101.569 34.1457C101.057 34.1297 100.585 34.1137 100.153 34.0977C99.7368 34.0817 99.4168 34.0737 99.1928 34.0737C98.9688 34.0737 98.6168 34.0737 98.1368 34.0737C97.6728 34.0897 97.2648 34.1057 96.9128 34.1217C96.4968 34.1697 96.0408 34.2017 95.5448 34.2177C95.0488 34.2337 94.5928 34.2177 94.1768 34.1697C93.7608 34.1217 93.4568 34.0417 93.2648 33.9297C93.3768 33.7057 93.4728 33.3697 93.5528 32.9217C93.6328 32.4577 93.6968 31.9537 93.7448 31.4097C93.7928 30.8657 93.8088 30.3457 93.7928 29.8497L93.7448 25.4577V23.4177C93.7448 22.8417 93.7368 22.3617 93.7208 21.9777C93.7208 21.5937 93.7208 21.3857 93.7208 21.3537C93.7208 20.8257 93.6968 20.2577 93.6488 19.6497C93.6008 19.0417 93.5448 18.4657 93.4808 17.9217C93.4168 17.3617 93.3608 16.9057 93.3128 16.5537C93.2488 16.2817 93.2008 16.0177 93.1688 15.7617C93.1368 15.4897 93.1288 15.2497 93.1448 15.0417C93.2568 15.0897 93.5608 15.1377 94.0568 15.1857C94.5688 15.2177 95.1608 15.2497 95.8328 15.2817C95.8808 15.2817 96.1128 15.2897 96.5288 15.3057C96.9448 15.3057 97.4568 15.3137 98.0648 15.3297C98.6888 15.3457 99.3288 15.3617 99.9848 15.3777C100.657 15.3777 101.265 15.3777 101.809 15.3777C102.353 15.3777 102.753 15.3697 103.009 15.3537C103.665 15.3217 104.217 15.2737 104.665 15.2097C105.129 15.1297 105.441 15.0257 105.601 14.8977C105.793 15.0577 105.969 15.3617 106.129 15.8097C106.305 16.2417 106.401 16.6977 106.417 17.1777C106.417 17.6417 106.305 18.0817 106.081 18.4977C105.873 18.8977 105.489 19.1697 104.929 19.3137C104.721 19.3617 104.393 19.4017 103.945 19.4337C103.513 19.4657 103.089 19.4897 102.673 19.5057C102.273 19.5057 101.985 19.4977 101.809 19.4817C101.313 19.4337 100.801 19.4897 100.273 19.6497C99.7448 19.7937 99.2968 19.9937 98.9288 20.2497C98.5608 20.4897 98.3688 20.7537 98.3528 21.0417C98.3368 21.3137 98.4488 21.5377 98.6888 21.7137C98.9288 21.8897 99.2408 22.0337 99.6248 22.1457C100.025 22.2417 100.449 22.3057 100.897 22.3377C101.345 22.3697 101.769 22.3777 102.169 22.3617C102.489 22.3297 102.857 22.2737 103.273 22.1937C103.689 22.1137 103.945 22.0337 104.041 21.9537C104.249 22.1297 104.393 22.4577 104.473 22.9377C104.569 23.4177 104.569 23.9137 104.473 24.4257C104.393 24.8417 104.233 25.2257 103.993 25.5777C103.753 25.9297 103.417 26.1697 102.985 26.2977C102.649 26.3937 102.361 26.4577 102.121 26.4897C101.881 26.5057 101.761 26.5137 101.761 26.5137C100.817 26.5137 100.017 26.6817 99.3608 27.0177C98.7208 27.3377 98.3688 27.7217 98.3048 28.1697C98.2408 28.5537 98.3208 28.9057 98.5448 29.2257C98.7848 29.5457 99.1288 29.7217 99.5768 29.7537C99.8808 29.7697 100.265 29.7777 100.729 29.7777C101.209 29.7617 101.673 29.7457 102.121 29.7297C102.585 29.6977 102.921 29.6657 103.129 29.6337ZM119.972 14.8257C121.076 14.9697 121.924 15.2897 122.516 15.7857C123.124 16.2817 123.508 16.8657 123.668 17.5377C123.844 18.2097 123.812 18.8977 123.572 19.6017C123.492 19.8737 123.324 20.3457 123.068 21.0177C122.828 21.6737 122.54 22.4417 122.204 23.3217C121.884 24.1857 121.548 25.0737 121.196 25.9857C120.844 26.8977 120.516 27.7537 120.212 28.5537C119.924 29.3377 119.684 29.9777 119.492 30.4737C119.3 30.9537 119.204 31.2017 119.204 31.2177C118.772 32.2257 118.388 32.9297 118.052 33.3297C117.716 33.7297 117.316 33.9297 116.852 33.9297C116.532 33.9297 116.188 33.8417 115.82 33.6657C115.468 33.4897 115.164 33.2817 114.908 33.0417C114.652 32.7857 114.5 32.5457 114.452 32.3217C114.564 32.1937 114.62 32.0337 114.62 31.8417C114.62 31.6497 114.604 31.4737 114.572 31.3137C114.54 31.1377 114.516 31.0337 114.5 31.0017C114.468 30.9217 114.356 30.6417 114.164 30.1617C113.988 29.6657 113.748 29.0417 113.444 28.2897C113.156 27.5217 112.828 26.6737 112.46 25.7457C112.092 24.8177 111.716 23.8737 111.332 22.9137C110.948 21.9377 110.58 21.0017 110.228 20.1057C109.876 19.1937 109.556 18.3777 109.268 17.6577C108.98 16.9377 108.748 16.3697 108.572 15.9537C108.412 15.5217 108.332 15.3057 108.332 15.3057C108.572 15.2737 108.948 15.2417 109.46 15.2097C109.988 15.1617 110.556 15.1617 111.164 15.2097C111.788 15.2577 112.364 15.3857 112.892 15.5937C113.436 15.8017 113.836 16.1377 114.092 16.6017C114.156 16.7297 114.252 16.9697 114.38 17.3217C114.524 17.6577 114.676 18.0577 114.836 18.5217C115.012 18.9697 115.18 19.4257 115.34 19.8897C115.5 20.3537 115.636 20.7617 115.748 21.1137C115.876 21.4497 115.964 21.6817 116.012 21.8097C116.124 22.1137 116.268 22.3697 116.444 22.5777C116.62 22.7697 116.796 22.8817 116.972 22.9137C117.148 22.9297 117.332 22.8657 117.524 22.7217C117.732 22.5777 117.892 22.3777 118.004 22.1217C118.052 22.0097 118.148 21.7137 118.292 21.2337C118.452 20.7377 118.628 20.1617 118.82 19.5057C119.028 18.8337 119.22 18.1697 119.396 17.5137C119.588 16.8417 119.74 16.2577 119.852 15.7617C119.964 15.2657 120.004 14.9537 119.972 14.8257ZM128.046 34.2177C127.358 34.0897 126.87 33.6257 126.582 32.8257C126.31 32.0257 126.174 31.0337 126.174 29.8497C126.174 29.7057 126.166 29.3457 126.15 28.7697C126.15 28.1937 126.142 27.4817 126.126 26.6337C126.126 25.7697 126.118 24.8417 126.102 23.8497C126.102 22.8577 126.094 21.8657 126.078 20.8737C126.062 19.8817 126.046 18.9697 126.03 18.1377C126.014 17.2897 125.998 16.5937 125.982 16.0497C125.966 15.5057 125.95 15.1777 125.934 15.0657C126.174 15.0177 126.542 15.0097 127.038 15.0417C127.55 15.0577 128.078 15.1377 128.622 15.2817C129.182 15.4097 129.67 15.6337 130.086 15.9537C130.502 16.2577 130.742 16.6817 130.806 17.2257C130.838 17.4817 130.862 17.9217 130.878 18.5457C130.894 19.1537 130.902 19.8817 130.902 20.7297C130.918 21.5617 130.926 22.4497 130.926 23.3937C130.926 24.3377 130.926 25.2737 130.926 26.2017C130.926 27.1137 130.926 27.9617 130.926 28.7457C130.926 29.5137 130.926 30.1617 130.926 30.6897C130.942 31.2017 130.958 31.5137 130.974 31.6257C131.006 31.9617 131.07 32.2097 131.166 32.3697C131.262 32.5137 131.366 32.6977 131.478 32.9217C131.078 33.3537 130.582 33.7057 129.99 33.9777C129.398 34.2497 128.75 34.3297 128.046 34.2177ZM148.003 24.6177C148.307 24.8737 148.555 25.1377 148.747 25.4097C148.939 25.6657 149.075 26.0177 149.155 26.4657C149.235 26.8977 149.259 27.5057 149.227 28.2897C149.211 28.6737 149.139 29.1217 149.011 29.6337C148.899 30.1457 148.699 30.6657 148.411 31.1937C148.123 31.7217 147.723 32.2097 147.211 32.6577C146.699 33.1057 146.051 33.4737 145.267 33.7617C144.483 34.0497 143.523 34.1937 142.387 34.1937H141.907C141.347 34.1617 140.675 34.1457 139.891 34.1457C139.107 34.1617 138.379 34.1697 137.707 34.1697C137.307 34.2017 136.883 34.2177 136.435 34.2177C135.987 34.2177 135.579 34.1937 135.211 34.1457C134.843 34.0977 134.571 34.0257 134.395 33.9297C134.507 33.7057 134.603 33.3697 134.683 32.9217C134.779 32.4577 134.851 31.9537 134.899 31.4097C134.947 30.8657 134.963 30.3457 134.947 29.8497C134.947 29.7217 134.939 29.4017 134.923 28.8897C134.923 28.3617 134.915 27.7137 134.899 26.9457C134.899 26.1617 134.891 25.3137 134.875 24.4017C134.875 23.4897 134.875 22.5777 134.875 21.6657C134.875 20.7217 134.867 19.9137 134.851 19.2417C134.835 18.5697 134.683 18.1537 134.395 17.9937C134.123 17.8177 133.883 17.4737 133.675 16.9617C133.483 16.4337 133.387 15.7537 133.387 14.9217C133.451 14.9377 133.651 14.9617 133.987 14.9937C134.323 15.0097 134.643 15.0337 134.947 15.0657C135.315 15.0817 135.835 15.0977 136.507 15.1137C137.195 15.1137 137.907 15.1137 138.643 15.1137C139.203 15.1137 139.763 15.1137 140.323 15.1137C140.883 15.1137 141.387 15.1217 141.835 15.1377C142.299 15.1377 142.635 15.1377 142.843 15.1377C143.835 15.1377 144.707 15.3217 145.459 15.6897C146.211 16.0417 146.803 16.5137 147.235 17.1057C147.667 17.6977 147.883 18.3457 147.883 19.0497C147.883 19.7537 147.771 20.3697 147.547 20.8977C147.339 21.4257 147.131 21.8737 146.923 22.2417C146.715 22.5937 146.619 22.8737 146.635 23.0817C146.683 23.4177 146.835 23.6817 147.091 23.8737C147.363 24.0657 147.667 24.3137 148.003 24.6177ZM143.155 20.4177C143.187 20.2097 143.091 20.0177 142.867 19.8417C142.659 19.6497 142.371 19.4977 142.003 19.3857C141.651 19.2577 141.275 19.1937 140.875 19.1937C140.475 19.1937 140.171 19.2977 139.963 19.5057C139.755 19.7137 139.619 19.9617 139.555 20.2497C139.491 20.5217 139.475 20.7537 139.507 20.9457C139.555 21.2497 139.779 21.4657 140.179 21.5937C140.595 21.7057 140.987 21.7697 141.355 21.7857C141.723 21.8017 142.099 21.7057 142.483 21.4977C142.867 21.2737 143.091 20.9137 143.155 20.4177ZM142.195 29.5377C142.771 29.5217 143.203 29.4337 143.491 29.2737C143.795 29.1137 144.003 28.9057 144.115 28.6497C144.227 28.3937 144.299 28.1377 144.331 27.8817C144.379 27.5297 144.275 27.2257 144.019 26.9697C143.763 26.6977 143.411 26.4897 142.963 26.3457C142.515 26.2017 142.019 26.1377 141.475 26.1537C140.931 26.1537 140.507 26.2737 140.203 26.5137C139.899 26.7537 139.691 27.0337 139.579 27.3537C139.467 27.6577 139.419 27.9297 139.435 28.1697C139.483 28.5057 139.739 28.8257 140.203 29.1297C140.667 29.4177 141.331 29.5537 142.195 29.5377ZM161.16 29.6337C161.384 29.6017 161.664 29.5617 162 29.5137C162.352 29.4657 162.68 29.4097 162.984 29.3457C163.304 29.2657 163.52 29.1777 163.632 29.0817C163.84 29.2577 163.976 29.6177 164.04 30.1617C164.12 30.6897 164.096 31.2417 163.968 31.8177C163.872 32.3137 163.704 32.7777 163.464 33.2097C163.224 33.6417 162.88 33.9057 162.432 34.0017C162.048 34.0817 161.608 34.1297 161.112 34.1457C160.616 34.1617 160.112 34.1617 159.6 34.1457C159.088 34.1297 158.616 34.1137 158.184 34.0977C157.768 34.0817 157.448 34.0737 157.224 34.0737C157 34.0737 156.648 34.0737 156.168 34.0737C155.704 34.0897 155.296 34.1057 154.944 34.1217C154.528 34.1697 154.072 34.2017 153.576 34.2177C153.08 34.2337 152.624 34.2177 152.208 34.1697C151.792 34.1217 151.488 34.0417 151.296 33.9297C151.408 33.7057 151.504 33.3697 151.584 32.9217C151.664 32.4577 151.728 31.9537 151.776 31.4097C151.824 30.8657 151.84 30.3457 151.824 29.8497L151.776 25.4577V23.4177C151.776 22.8417 151.768 22.3617 151.752 21.9777C151.752 21.5937 151.752 21.3857 151.752 21.3537C151.752 20.8257 151.728 20.2577 151.68 19.6497C151.632 19.0417 151.576 18.4657 151.512 17.9217C151.448 17.3617 151.392 16.9057 151.344 16.5537C151.28 16.2817 151.232 16.0177 151.2 15.7617C151.168 15.4897 151.16 15.2497 151.176 15.0417C151.288 15.0897 151.592 15.1377 152.088 15.1857C152.6 15.2177 153.192 15.2497 153.864 15.2817C153.912 15.2817 154.144 15.2897 154.56 15.3057C154.976 15.3057 155.488 15.3137 156.096 15.3297C156.72 15.3457 157.36 15.3617 158.016 15.3777C158.688 15.3777 159.296 15.3777 159.84 15.3777C160.384 15.3777 160.784 15.3697 161.04 15.3537C161.696 15.3217 162.248 15.2737 162.696 15.2097C163.16 15.1297 163.472 15.0257 163.632 14.8977C163.824 15.0577 164 15.3617 164.16 15.8097C164.336 16.2417 164.432 16.6977 164.448 17.1777C164.448 17.6417 164.336 18.0817 164.112 18.4977C163.904 18.8977 163.52 19.1697 162.96 19.3137C162.752 19.3617 162.424 19.4017 161.976 19.4337C161.544 19.4657 161.12 19.4897 160.704 19.5057C160.304 19.5057 160.016 19.4977 159.84 19.4817C159.344 19.4337 158.832 19.4897 158.304 19.6497C157.776 19.7937 157.328 19.9937 156.96 20.2497C156.592 20.4897 156.4 20.7537 156.384 21.0417C156.368 21.3137 156.48 21.5377 156.72 21.7137C156.96 21.8897 157.272 22.0337 157.656 22.1457C158.056 22.2417 158.48 22.3057 158.928 22.3377C159.376 22.3697 159.8 22.3777 160.2 22.3617C160.52 22.3297 160.888 22.2737 161.304 22.1937C161.72 22.1137 161.976 22.0337 162.072 21.9537C162.28 22.1297 162.424 22.4577 162.504 22.9377C162.6 23.4177 162.6 23.9137 162.504 24.4257C162.424 24.8417 162.264 25.2257 162.024 25.5777C161.784 25.9297 161.448 26.1697 161.016 26.2977C160.68 26.3937 160.392 26.4577 160.152 26.4897C159.912 26.5057 159.792 26.5137 159.792 26.5137C158.848 26.5137 158.048 26.6817 157.392 27.0177C156.752 27.3377 156.4 27.7217 156.336 28.1697C156.272 28.5537 156.352 28.9057 156.576 29.2257C156.816 29.5457 157.16 29.7217 157.608 29.7537C157.912 29.7697 158.296 29.7777 158.76 29.7777C159.24 29.7617 159.704 29.7457 160.152 29.7297C160.616 29.6977 160.952 29.6657 161.16 29.6337Z" fill="url(#paint0_linear_102_18)"/>
</g>
<defs>
<filter id="filter0_d_102_18" x="63.2842" y="14.2498" width="102.164" height="22.208" filterUnits="userSpaceOnUse" color-interpolation-filters="sRGB">
<feFlood flood-opacity="0" result="BackgroundImageFix"/>
<feColorMatrix in="SourceAlpha" type="matrix" values="0 0 0 0 0 0 0 0 0 0 0 0 0 0 0 0 0 0 127 0" result="hardAlpha"/>
<feOffset dx="1" dy="2"/>
<feComposite in2="hardAlpha" operator="out"/>
<feColorMatrix type="matrix" values="0 0 0 0 0.112599 0 0 0 0 0.493012 0 0 0 0 0.0506707 0 0 0 0.8 0"/>
<feBlend mode="normal" in2="BackgroundImageFix" result="effect1_dropShadow_102_18"/>
<feBlend mode="normal" in="SourceGraphic" in2="effect1_dropShadow_102_18" result="shape"/>
</filter>
<linearGradient id="paint0_linear_102_18" x1="114.372" y1="6.00171" x2="114.372" y2="41.0017" gradientUnits="userSpaceOnUse">
<stop stop-color="#F15025"/>
</linearGradient>
</defs>
</svg>
