<svg width="133" height="24" viewBox="0 0 133 24" fill="none" xmlns="http://www.w3.org/2000/svg">
<path d="M0.0547105 1.84705L0.160943 7.40643L6.21509 7.29074C7.86148 7.25928 9.37004 6.36587 10.1863 4.93874L12.0863 1.61714L0.0547105 1.84705Z" fill="#59585A"/>
<path d="M19.7314 22.8361L19.6251 17.2768L3.67903 17.5815L0.462677 23.2043L19.7314 22.8361Z" fill="#59585A"/>
<path d="M11.9337 14.2933L19.3057 1.47912L12.8187 1.60308L4.0032 16.9334L7.58536 16.8649C9.38715 16.8305 11.0384 15.854 11.9337 14.2933Z" fill="#59585A"/>
<path d="M39.3337 12.1728C39.3337 13.0218 39.2322 13.8004 39.0291 14.5088C38.8311 15.2119 38.5238 15.8213 38.1072 16.3369C37.6905 16.8525 37.1619 17.2562 36.5212 17.5478L39.2712 20.6182H36.1697L34.0759 18.0557C34.0395 18.0557 34.0082 18.0557 33.9822 18.0557C33.9561 18.0557 33.9275 18.0557 33.8962 18.0557C32.9639 18.0557 32.1567 17.9176 31.4744 17.6416C30.7921 17.3603 30.227 16.9593 29.7791 16.4385C29.3363 15.9176 29.0056 15.2952 28.7869 14.5713C28.5681 13.8473 28.4587 13.0426 28.4587 12.1572C28.4587 10.9749 28.6514 9.94628 29.0369 9.07128C29.4275 8.19107 30.0264 7.50878 30.8337 7.02441C31.641 6.54003 32.6671 6.29784 33.9119 6.29784C35.1514 6.29784 36.1697 6.54003 36.9666 7.02441C37.7686 7.50878 38.3624 8.19107 38.7478 9.07128C39.1384 9.95149 39.3337 10.9853 39.3337 12.1728ZM30.9978 12.1728C30.9978 12.9697 31.0968 13.6572 31.2947 14.2353C31.4978 14.8083 31.8129 15.251 32.24 15.5635C32.6671 15.8708 33.2192 16.0244 33.8962 16.0244C34.5837 16.0244 35.141 15.8708 35.5681 15.5635C35.9952 15.251 36.3051 14.8083 36.4978 14.2353C36.6957 13.6572 36.7947 12.9697 36.7947 12.1728C36.7947 10.9749 36.5707 10.0322 36.1228 9.34472C35.6749 8.65722 34.9379 8.31347 33.9119 8.31347C33.2296 8.31347 32.6723 8.46972 32.24 8.78222C31.8129 9.08951 31.4978 9.53222 31.2947 10.1103C31.0968 10.6833 30.9978 11.3708 30.9978 12.1728ZM49.5291 9.16503V17.8994H47.7009L47.3806 16.7822H47.2556C47.0681 17.0791 46.8337 17.3213 46.5525 17.5088C46.2712 17.6963 45.9613 17.8343 45.6228 17.9228C45.2843 18.0114 44.9327 18.0557 44.5681 18.0557C43.9431 18.0557 43.3988 17.9463 42.9353 17.7275C42.4718 17.5036 42.1098 17.1572 41.8494 16.6885C41.5942 16.2197 41.4666 15.6103 41.4666 14.8603V9.16503H43.8494V14.2666C43.8494 14.8916 43.9613 15.3629 44.1853 15.6807C44.4093 15.9984 44.766 16.1572 45.2556 16.1572C45.74 16.1572 46.1202 16.0478 46.3962 15.8291C46.6723 15.6051 46.865 15.2796 46.9744 14.8525C47.0889 14.4202 47.1462 13.8942 47.1462 13.2744V9.16503H49.5291ZM55.6306 9.00097C56.4379 9.00097 57.1332 9.15722 57.7166 9.46972C58.2999 9.77701 58.7504 10.2249 59.0681 10.8135C59.3858 11.402 59.5447 12.1208 59.5447 12.9697V14.126H53.9119C53.9379 14.7978 54.1384 15.3265 54.5134 15.7119C54.8936 16.0921 55.4197 16.2822 56.0916 16.2822C56.6488 16.2822 57.1593 16.2249 57.6228 16.1103C58.0863 15.9958 58.5629 15.8239 59.0525 15.5947V17.4385C58.6202 17.652 58.1671 17.8083 57.6931 17.9072C57.2244 18.0062 56.6541 18.0557 55.9822 18.0557C55.1072 18.0557 54.3311 17.8942 53.6541 17.5713C52.9822 17.2484 52.4535 16.7562 52.0681 16.0947C51.6879 15.4333 51.4978 14.5999 51.4978 13.5947C51.4978 12.5739 51.6697 11.7249 52.0134 11.0478C52.3624 10.3656 52.8468 9.85514 53.4666 9.51659C54.0863 9.17284 54.8077 9.00097 55.6306 9.00097ZM55.6462 10.6963C55.1827 10.6963 54.7973 10.8447 54.49 11.1416C54.1879 11.4385 54.0134 11.9046 53.9666 12.54H57.3103C57.3051 12.1859 57.24 11.8708 57.115 11.5947C56.9952 11.3187 56.8129 11.0999 56.5681 10.9385C56.3285 10.777 56.0212 10.6963 55.6462 10.6963ZM65.0837 9.00097C65.891 9.00097 66.5863 9.15722 67.1697 9.46972C67.753 9.77701 68.2035 10.2249 68.5212 10.8135C68.8389 11.402 68.9978 12.1208 68.9978 12.9697V14.126H63.365C63.391 14.7978 63.5916 15.3265 63.9666 15.7119C64.3468 16.0921 64.8728 16.2822 65.5447 16.2822C66.102 16.2822 66.6124 16.2249 67.0759 16.1103C67.5395 15.9958 68.016 15.8239 68.5056 15.5947V17.4385C68.0733 17.652 67.6202 17.8083 67.1462 17.9072C66.6775 18.0062 66.1072 18.0557 65.4353 18.0557C64.5603 18.0557 63.7843 17.8942 63.1072 17.5713C62.4353 17.2484 61.9067 16.7562 61.5212 16.0947C61.141 15.4333 60.9509 14.5999 60.9509 13.5947C60.9509 12.5739 61.1228 11.7249 61.4666 11.0478C61.8155 10.3656 62.2999 9.85514 62.9197 9.51659C63.5395 9.17284 64.2608 9.00097 65.0837 9.00097ZM65.0994 10.6963C64.6358 10.6963 64.2504 10.8447 63.9431 11.1416C63.641 11.4385 63.4666 11.9046 63.4197 12.54H66.7634C66.7582 12.1859 66.6931 11.8708 66.5681 11.5947C66.4483 11.3187 66.266 11.0999 66.0212 10.9385C65.7817 10.777 65.4744 10.6963 65.0994 10.6963ZM75.8962 9.00097C76.8285 9.00097 77.5785 9.25618 78.1462 9.76659C78.7139 10.2718 78.9978 11.0843 78.9978 12.2041V17.8994H76.615V12.7978C76.615 12.1728 76.5004 11.7015 76.2712 11.3838C76.0473 11.0661 75.6931 10.9072 75.2087 10.9072C74.4796 10.9072 73.9822 11.1546 73.7166 11.6494C73.4509 12.1442 73.3181 12.8577 73.3181 13.79V17.8994H70.9353V9.16503H72.7556L73.0759 10.2822H73.2087C73.3962 9.98014 73.628 9.73534 73.9041 9.54784C74.1853 9.36034 74.4952 9.22232 74.8337 9.13378C75.1775 9.04524 75.5317 9.00097 75.8962 9.00097ZM89.1541 18.0557C88.2895 18.0557 87.5525 17.8994 86.9431 17.5869C86.3337 17.2692 85.8702 16.7796 85.5525 16.1182C85.2348 15.4567 85.0759 14.6103 85.0759 13.5791C85.0759 12.5114 85.2556 11.6416 85.615 10.9697C85.9796 10.2926 86.4822 9.79524 87.1228 9.47753C87.7686 9.15982 88.516 9.00097 89.365 9.00097C89.9692 9.00097 90.49 9.06086 90.9275 9.18066C91.3702 9.29524 91.7556 9.43326 92.0837 9.59472L91.3806 11.4385C91.0056 11.2874 90.6567 11.165 90.3337 11.0713C90.0108 10.9723 89.6879 10.9228 89.365 10.9228C88.9483 10.9228 88.602 11.0218 88.3259 11.2197C88.0499 11.4124 87.8442 11.7041 87.7087 12.0947C87.5733 12.4853 87.5056 12.9749 87.5056 13.5635C87.5056 14.1416 87.5785 14.6208 87.7244 15.001C87.8702 15.3812 88.0811 15.665 88.3572 15.8525C88.6332 16.0348 88.9692 16.126 89.365 16.126C89.8598 16.126 90.2999 16.0609 90.6853 15.9307C91.0707 15.7952 91.4457 15.6077 91.8103 15.3682V17.4072C91.4457 17.6364 91.0629 17.8004 90.6619 17.8994C90.266 18.0036 89.7634 18.0557 89.1541 18.0557ZM96.2244 17.8994H93.8416V5.74316H96.2244V17.8994ZM106.67 13.5166C106.67 14.2458 106.571 14.8916 106.373 15.4541C106.18 16.0166 105.896 16.4932 105.521 16.8838C105.151 17.2692 104.704 17.5609 104.177 17.7588C103.657 17.9567 103.068 18.0557 102.412 18.0557C101.797 18.0557 101.232 17.9567 100.717 17.7588C100.206 17.5609 99.7608 17.2692 99.3806 16.8838C99.0056 16.4932 98.7139 16.0166 98.5056 15.4541C98.3025 14.8916 98.2009 14.2458 98.2009 13.5166C98.2009 12.5478 98.3728 11.7275 98.7166 11.0557C99.0603 10.3838 99.5499 9.87336 100.185 9.52441C100.821 9.17545 101.579 9.00097 102.459 9.00097C103.276 9.00097 104 9.17545 104.631 9.52441C105.266 9.87336 105.763 10.3838 106.123 11.0557C106.487 11.7275 106.67 12.5478 106.67 13.5166ZM100.631 13.5166C100.631 14.0895 100.693 14.5713 100.818 14.9619C100.943 15.3525 101.138 15.6468 101.404 15.8447C101.67 16.0426 102.016 16.1416 102.443 16.1416C102.865 16.1416 103.206 16.0426 103.467 15.8447C103.732 15.6468 103.925 15.3525 104.045 14.9619C104.17 14.5713 104.232 14.0895 104.232 13.5166C104.232 12.9385 104.17 12.4593 104.045 12.0791C103.925 11.6937 103.732 11.4046 103.467 11.2119C103.201 11.0192 102.855 10.9228 102.427 10.9228C101.797 10.9228 101.339 11.139 101.052 11.5713C100.771 12.0036 100.631 12.652 100.631 13.5166ZM114.717 17.8994H107.818V16.4932L111.865 10.9853H108.06V9.16503H114.576V10.7119L110.638 16.0791H114.717V17.8994ZM120.052 9.00097C120.86 9.00097 121.555 9.15722 122.138 9.46972C122.722 9.77701 123.172 10.2249 123.49 10.8135C123.808 11.402 123.967 12.1208 123.967 12.9697V14.126H118.334C118.36 14.7978 118.56 15.3265 118.935 15.7119C119.316 16.0921 119.842 16.2822 120.513 16.2822C121.071 16.2822 121.581 16.2249 122.045 16.1103C122.508 15.9958 122.985 15.8239 123.474 15.5947V17.4385C123.042 17.652 122.589 17.8083 122.115 17.9072C121.646 18.0062 121.076 18.0557 120.404 18.0557C119.529 18.0557 118.753 17.8942 118.076 17.5713C117.404 17.2484 116.875 16.7562 116.49 16.0947C116.11 15.4333 115.92 14.5999 115.92 13.5947C115.92 12.5739 116.092 11.7249 116.435 11.0478C116.784 10.3656 117.269 9.85514 117.888 9.51659C118.508 9.17284 119.23 9.00097 120.052 9.00097ZM120.068 10.6963C119.605 10.6963 119.219 10.8447 118.912 11.1416C118.61 11.4385 118.435 11.9046 118.388 12.54H121.732C121.727 12.1859 121.662 11.8708 121.537 11.5947C121.417 11.3187 121.235 11.0999 120.99 10.9385C120.75 10.777 120.443 10.6963 120.068 10.6963ZM129.584 16.1572C129.844 16.1572 130.097 16.1312 130.342 16.0791C130.592 16.027 130.839 15.9619 131.084 15.8838V17.6572C130.829 17.7718 130.511 17.8656 130.131 17.9385C129.756 18.0166 129.344 18.0557 128.896 18.0557C128.375 18.0557 127.907 17.9723 127.49 17.8057C127.079 17.6338 126.753 17.3395 126.513 16.9228C126.279 16.501 126.162 15.915 126.162 15.165V10.9541H125.021V9.94628L126.334 9.14941L127.021 7.30566H128.545V9.16503H130.99V10.9541H128.545V15.165C128.545 15.4984 128.638 15.7484 128.826 15.915C129.019 16.0765 129.271 16.1572 129.584 16.1572Z" fill="#59585A"/>
</svg>
