<svg width="162" height="34" viewBox="0 0 162 34" fill="none" xmlns="http://www.w3.org/2000/svg">
<path d="M22.0931 17.0517C22.0931 14.1954 19.7692 11.8715 16.913 11.8715C14.0567 11.8715 11.7328 14.1954 11.7328 17.0517C11.7328 19.908 14.0567 22.2318 16.913 22.2318C19.7692 22.2318 22.0931 19.908 22.0931 17.0517ZM16.913 17.9658C16.4089 17.9658 15.9989 17.5558 15.9989 17.0517C15.9989 16.5476 16.409 16.1376 16.913 16.1376C17.4171 16.1376 17.8271 16.5476 17.8271 17.0517C17.8271 17.5558 17.4171 17.9658 16.913 17.9658Z" fill="#59585A"/>
<path d="M14.9633 20.4991C15.5392 20.826 16.2048 21.013 16.913 21.013C17.6213 21.013 18.2868 20.826 18.8627 20.4991M18.3682 18.6097C18.9359 18.8575 19.4376 19.2465 19.818 19.7421C20.4732 19.0352 20.8743 18.0895 20.8743 17.0517C20.8743 14.8673 19.0972 13.0904 16.913 13.0904C14.7287 13.0904 12.9517 14.8676 12.9517 17.0517C12.9517 18.0895 13.3531 19.0349 14.0082 19.7419C14.3887 19.2465 14.8904 18.8573 15.4578 18.6097C15.041 18.2201 14.78 17.6659 14.78 17.0517C14.78 15.8755 15.7368 14.9187 16.913 14.9187M22.0931 17.0517C22.0931 14.1954 19.7692 11.8715 16.913 11.8715C14.0567 11.8715 11.7328 14.1954 11.7328 17.0517C11.7328 19.908 14.0567 22.2318 16.913 22.2318C19.7692 22.2318 22.0931 19.908 22.0931 17.0517ZM16.913 17.9658C16.4089 17.9658 15.9989 17.5558 15.9989 17.0517C15.9989 16.5476 16.409 16.1376 16.913 16.1376C17.4171 16.1376 17.8271 16.5476 17.8271 17.0517C17.8271 17.5558 17.4171 17.9658 16.913 17.9658Z" stroke="#59585A" stroke-width="1.5"/>
<path d="M25.445 17.0517C25.445 12.3471 21.6176 8.51999 16.9133 8.51999C12.209 8.51999 8.38156 12.3474 8.38156 17.0517C8.38156 21.756 12.209 25.5834 16.9133 25.5834C21.6176 25.5834 25.445 21.756 25.445 17.0517ZM9.59958 17.0517C9.59958 13.0192 12.8803 9.73857 16.9127 9.73857C20.9452 9.73857 24.2258 13.0192 24.2258 17.0517C24.2258 21.0841 20.9452 24.3648 16.9127 24.3648C12.8803 24.3648 9.59958 21.0841 9.59958 17.0517Z" fill="#59585A" stroke="#59585A" stroke-width="1.5"/>
<path d="M4.94483 10.8453C5.04082 10.9008 5.14551 10.9271 5.24889 10.9271C5.45958 10.9271 5.66439 10.8179 5.77714 10.6222C7.71427 7.26708 11.1077 4.94833 14.9218 4.34768C15.2299 5.14736 16.0063 5.71608 16.913 5.71608C18.0892 5.71608 19.046 4.75928 19.046 3.5831C19.046 2.40693 18.0892 1.45012 16.913 1.45012C15.8927 1.45012 15.0373 2.17034 14.8286 3.12888C12.8148 3.43142 10.8649 4.1769 9.1653 5.29735C7.34702 6.49598 5.8104 8.12638 4.72148 10.0124C4.55324 10.304 4.65314 10.6766 4.94458 10.8449L4.94483 10.8453ZM16.9133 2.66908C17.4174 2.66908 17.8274 3.07914 17.8274 3.58321C17.8274 4.08728 17.4174 4.49733 16.9133 4.49733C16.4092 4.49733 15.9992 4.08728 15.9992 3.58321C15.9992 3.07914 16.4092 2.66908 16.9133 2.66908Z" fill="#59585A" stroke="#59585A" stroke-width="1.5"/>
<path d="M10.4836 28.1877C7.12825 26.2505 4.80917 22.8571 4.20963 19.0431C5.00909 18.7351 5.57804 17.9585 5.57804 17.0518C5.57804 15.8756 4.62123 14.9188 3.44506 14.9188C2.26888 14.9188 1.31207 15.8756 1.31207 17.0518C1.31207 18.0721 2.0323 18.9275 2.99083 19.136C3.29337 21.1497 4.03885 23.0997 5.15931 24.7993C6.35794 26.6176 7.98833 28.1542 9.87431 29.2431C9.9703 29.2986 10.075 29.3249 10.1784 29.3249C10.3891 29.3249 10.5939 29.2157 10.7066 29.02C10.8749 28.7286 10.775 28.356 10.4835 28.1875L10.4836 28.1877ZM2.53082 17.0517C2.53082 16.5476 2.94088 16.1375 3.44494 16.1375C3.94901 16.1375 4.35907 16.5476 4.35907 17.0517C4.35907 17.5557 3.94901 17.9658 3.44494 17.9658C2.94088 17.9658 2.53082 17.5557 2.53082 17.0517Z" fill="#59585A" stroke="#59585A" stroke-width="1.5"/>
<path d="M28.8815 23.2584C28.5898 23.0902 28.2172 23.1901 28.049 23.4815C26.1118 26.8369 22.7184 29.156 18.9044 29.7561C18.5964 28.9566 17.8198 28.3877 16.9131 28.3877C15.7369 28.3877 14.7801 29.3445 14.7801 30.5206C14.7801 31.6968 15.7369 32.6536 16.9131 32.6536C17.9334 32.6536 18.7888 31.9334 18.9975 30.9749C21.0113 30.6723 22.9612 29.9268 24.6608 28.8064C26.4791 27.6078 28.0157 25.9774 29.1046 24.0914C29.2729 23.7999 29.173 23.4271 28.8815 23.2589L28.8815 23.2584ZM16.913 31.4347C16.4089 31.4347 15.9989 31.0246 15.9989 30.5205C15.9989 30.0165 16.4089 29.6064 16.913 29.6064C17.4171 29.6064 17.8271 30.0165 17.8271 30.5205C17.8271 31.0246 17.4171 31.4347 16.913 31.4347Z" fill="#59585A" stroke="#59585A" stroke-width="1.5"/>
<path d="M30.8357 14.9673C30.5331 12.9536 29.7877 11.0036 28.6672 9.30402C27.4686 7.48574 25.8382 5.94912 23.9522 4.8602C23.6605 4.69196 23.2879 4.79186 23.1197 5.08329C22.9515 5.37473 23.0513 5.74735 23.3428 5.91579C26.6981 7.85292 29.0172 11.2463 29.6173 15.0604C28.8179 15.3684 28.2489 16.145 28.2489 17.0517C28.2489 18.2279 29.2057 19.1847 30.3819 19.1847C31.5581 19.1847 32.5149 18.2279 32.5149 17.0517C32.5149 16.0314 31.7947 15.176 30.8361 14.9672L30.8357 14.9673ZM30.3814 17.9657C29.8774 17.9657 29.4673 17.5556 29.4673 17.0515C29.4673 16.5475 29.8774 16.1374 30.3814 16.1374C30.8855 16.1374 31.2956 16.5475 31.2956 17.0515C31.2956 17.5556 30.8855 17.9657 30.3814 17.9657Z" fill="#59585A" stroke="#59585A" stroke-width="1.5"/>
<path d="M51.5914 21.9174H49.2086V10.4956H55.7554V12.4799H51.5914V15.4252H55.4664V17.4018H51.5914V21.9174ZM61.3804 13.0034C62.5523 13.0034 63.4507 13.2586 64.0757 13.769C64.7007 14.2794 65.0132 15.0555 65.0132 16.0971V21.9174H63.3492L62.8882 20.7299H62.8257C62.5757 21.0424 62.3205 21.2976 62.0601 21.4956C61.7997 21.6935 61.5002 21.8393 61.1617 21.9331C60.8231 22.0268 60.4117 22.0737 59.9273 22.0737C59.4117 22.0737 58.9481 21.9747 58.5367 21.7768C58.1304 21.5789 57.8101 21.2768 57.5757 20.8706C57.3414 20.4591 57.2242 19.9383 57.2242 19.3081C57.2242 18.381 57.5497 17.6987 58.2007 17.2612C58.8518 16.8185 59.8283 16.5737 61.1304 16.5268L62.6461 16.4799V16.0971C62.6461 15.6388 62.5263 15.3029 62.2867 15.0893C62.0471 14.8758 61.7138 14.769 61.2867 14.769C60.8648 14.769 60.4507 14.8289 60.0445 14.9487C59.6382 15.0685 59.232 15.2195 58.8257 15.4018L58.0367 13.7924C58.5002 13.5476 59.0185 13.3549 59.5914 13.2143C60.1695 13.0737 60.7658 13.0034 61.3804 13.0034ZM62.6461 17.8706L61.7242 17.9018C60.9533 17.9226 60.4169 18.0607 60.1148 18.3159C59.8179 18.5711 59.6695 18.907 59.6695 19.3237C59.6695 19.6883 59.7763 19.9487 59.9898 20.1049C60.2033 20.256 60.482 20.3315 60.8257 20.3315C61.3362 20.3315 61.7658 20.1805 62.1148 19.8784C62.469 19.5763 62.6461 19.1466 62.6461 18.5893V17.8706ZM73.5679 19.3237C73.5679 19.9174 73.4273 20.42 73.1461 20.8315C72.87 21.2377 72.456 21.5476 71.9039 21.7612C71.3518 21.9695 70.6643 22.0737 69.8414 22.0737C69.232 22.0737 68.7086 22.0346 68.2711 21.9565C67.8388 21.8784 67.4013 21.7482 66.9586 21.5659V19.5971C67.4325 19.8107 67.9403 19.9877 68.482 20.1284C69.0289 20.2638 69.508 20.3315 69.9195 20.3315C70.383 20.3315 70.7138 20.2638 70.9117 20.1284C71.1148 19.9877 71.2164 19.8055 71.2164 19.5815C71.2164 19.4357 71.1747 19.3055 71.0914 19.1909C71.0132 19.0711 70.8414 18.9383 70.5757 18.7924C70.3101 18.6414 69.8935 18.4461 69.3257 18.2065C68.7789 17.9773 68.3283 17.7456 67.9742 17.5112C67.6252 17.2768 67.3648 17.0008 67.1929 16.6831C67.0263 16.3601 66.9429 15.9513 66.9429 15.4565C66.9429 14.6492 67.2554 14.0424 67.8804 13.6362C68.5106 13.2247 69.3518 13.019 70.4039 13.019C70.9455 13.019 71.4612 13.0737 71.9507 13.1831C72.4455 13.2924 72.9533 13.4669 73.4742 13.7065L72.7554 15.4252C72.3231 15.2377 71.9143 15.0841 71.5289 14.9643C71.1487 14.8445 70.7606 14.7846 70.3648 14.7846C70.0158 14.7846 69.7528 14.8315 69.5757 14.9252C69.3987 15.019 69.3101 15.1622 69.3101 15.3549C69.3101 15.4956 69.3544 15.6206 69.4429 15.7299C69.5367 15.8393 69.7138 15.9617 69.9742 16.0971C70.2398 16.2273 70.6278 16.3966 71.1382 16.6049C71.633 16.8081 72.0627 17.0216 72.4273 17.2456C72.7919 17.4643 73.0731 17.7377 73.2711 18.0659C73.469 18.3888 73.5679 18.8081 73.5679 19.3237ZM77.8101 9.76118V12.2377C77.8101 12.67 77.7945 13.0815 77.7632 13.4721C77.7372 13.8627 77.7164 14.1388 77.7007 14.3002H77.8257C78.0132 13.9982 78.2346 13.7534 78.4898 13.5659C78.7502 13.3784 79.0367 13.2404 79.3492 13.1518C79.6617 13.0633 79.9976 13.019 80.357 13.019C80.9872 13.019 81.5367 13.131 82.0054 13.3549C82.4742 13.5737 82.8388 13.92 83.0992 14.394C83.3596 14.8627 83.4898 15.4721 83.4898 16.2221V21.9174H81.107V16.8159C81.107 16.1909 80.9924 15.7195 80.7632 15.4018C80.5341 15.0841 80.1799 14.9252 79.7007 14.9252C79.2216 14.9252 78.844 15.0372 78.5679 15.2612C78.2919 15.4799 78.0966 15.8055 77.982 16.2377C77.8674 16.6648 77.8101 17.1883 77.8101 17.8081V21.9174H75.4273V9.76118H77.8101ZM88.3257 13.1831V21.9174H85.9429V13.1831H88.3257ZM87.1382 9.76118C87.4924 9.76118 87.7971 9.84452 88.0523 10.0112C88.3075 10.1726 88.4351 10.4773 88.4351 10.9252C88.4351 11.368 88.3075 11.6752 88.0523 11.8471C87.7971 12.0138 87.4924 12.0971 87.1382 12.0971C86.7789 12.0971 86.4716 12.0138 86.2164 11.8471C85.9664 11.6752 85.8414 11.368 85.8414 10.9252C85.8414 10.4773 85.9664 10.1726 86.2164 10.0112C86.4716 9.84452 86.7789 9.76118 87.1382 9.76118ZM98.7711 17.5346C98.7711 18.2638 98.6721 18.9096 98.4742 19.4721C98.2815 20.0346 97.9976 20.5112 97.6226 20.9018C97.2528 21.2872 96.8049 21.5789 96.2789 21.7768C95.758 21.9747 95.1695 22.0737 94.5132 22.0737C93.8987 22.0737 93.3336 21.9747 92.8179 21.7768C92.3075 21.5789 91.8622 21.2872 91.482 20.9018C91.107 20.5112 90.8153 20.0346 90.607 19.4721C90.4039 18.9096 90.3023 18.2638 90.3023 17.5346C90.3023 16.5659 90.4742 15.7456 90.8179 15.0737C91.1617 14.4018 91.6513 13.8914 92.2867 13.5424C92.9221 13.1935 93.6799 13.019 94.5601 13.019C95.3778 13.019 96.1018 13.1935 96.732 13.5424C97.3674 13.8914 97.8648 14.4018 98.2242 15.0737C98.5888 15.7456 98.7711 16.5659 98.7711 17.5346ZM92.732 17.5346C92.732 18.1075 92.7945 18.5893 92.9195 18.9799C93.0445 19.3706 93.2398 19.6648 93.5054 19.8627C93.7711 20.0607 94.1174 20.1596 94.5445 20.1596C94.9664 20.1596 95.3075 20.0607 95.5679 19.8627C95.8336 19.6648 96.0263 19.3706 96.1461 18.9799C96.2711 18.5893 96.3336 18.1075 96.3336 17.5346C96.3336 16.9565 96.2711 16.4773 96.1461 16.0971C96.0263 15.7117 95.8336 15.4226 95.5679 15.2299C95.3023 15.0372 94.956 14.9409 94.5289 14.9409C93.8987 14.9409 93.4403 15.157 93.1539 15.5893C92.8726 16.0216 92.732 16.67 92.732 17.5346ZM105.701 13.019C106.633 13.019 107.383 13.2742 107.951 13.7846C108.518 14.2898 108.802 15.1023 108.802 16.2221V21.9174H106.419V16.8159C106.419 16.1909 106.305 15.7195 106.076 15.4018C105.852 15.0841 105.498 14.9252 105.013 14.9252C104.284 14.9252 103.787 15.1726 103.521 15.6674C103.255 16.1622 103.123 16.8758 103.123 17.8081V21.9174H100.74V13.1831H102.56L102.88 14.3002H103.013C103.201 13.9982 103.433 13.7534 103.709 13.5659C103.99 13.3784 104.3 13.2404 104.638 13.1518C104.982 13.0633 105.336 13.019 105.701 13.019ZM113.826 21.9174H111.443V10.4956H117.99V12.4799H113.826V15.4252H117.701V17.4018H113.826V21.9174ZM127.974 17.5346C127.974 18.2638 127.875 18.9096 127.677 19.4721C127.485 20.0346 127.201 20.5112 126.826 20.9018C126.456 21.2872 126.008 21.5789 125.482 21.7768C124.961 21.9747 124.373 22.0737 123.716 22.0737C123.102 22.0737 122.537 21.9747 122.021 21.7768C121.511 21.5789 121.065 21.2872 120.685 20.9018C120.31 20.5112 120.018 20.0346 119.81 19.4721C119.607 18.9096 119.505 18.2638 119.505 17.5346C119.505 16.5659 119.677 15.7456 120.021 15.0737C120.365 14.4018 120.854 13.8914 121.49 13.5424C122.125 13.1935 122.883 13.019 123.763 13.019C124.581 13.019 125.305 13.1935 125.935 13.5424C126.571 13.8914 127.068 14.4018 127.427 15.0737C127.792 15.7456 127.974 16.5659 127.974 17.5346ZM121.935 17.5346C121.935 18.1075 121.998 18.5893 122.123 18.9799C122.248 19.3706 122.443 19.6648 122.709 19.8627C122.974 20.0607 123.321 20.1596 123.748 20.1596C124.169 20.1596 124.511 20.0607 124.771 19.8627C125.037 19.6648 125.229 19.3706 125.349 18.9799C125.474 18.5893 125.537 18.1075 125.537 17.5346C125.537 16.9565 125.474 16.4773 125.349 16.0971C125.229 15.7117 125.037 15.4226 124.771 15.2299C124.505 15.0372 124.159 14.9409 123.732 14.9409C123.102 14.9409 122.643 15.157 122.357 15.5893C122.076 16.0216 121.935 16.67 121.935 17.5346ZM134.818 13.019C134.938 13.019 135.076 13.0268 135.232 13.0424C135.393 13.0529 135.524 13.0685 135.623 13.0893L135.443 15.3237C135.365 15.2976 135.253 15.2794 135.107 15.269C134.966 15.2534 134.844 15.2456 134.74 15.2456C134.433 15.2456 134.133 15.2846 133.841 15.3627C133.555 15.4409 133.297 15.5685 133.068 15.7456C132.839 15.9174 132.656 16.1466 132.521 16.4331C132.391 16.7143 132.326 17.0607 132.326 17.4721V21.9174H129.943V13.1831H131.748L132.099 14.6518H132.216C132.388 14.3549 132.602 14.0841 132.857 13.8393C133.117 13.5893 133.412 13.3914 133.74 13.2456C134.073 13.0945 134.433 13.019 134.818 13.019ZM144.388 21.9174L143.56 19.1987H139.396L138.568 21.9174H135.959L139.99 10.4487H142.951L146.998 21.9174H144.388ZM142.982 17.1674L142.154 14.5112C142.102 14.3341 142.031 14.1075 141.943 13.8315C141.86 13.5502 141.774 13.2664 141.685 12.9799C141.602 12.6883 141.534 12.4357 141.482 12.2221C141.43 12.4357 141.357 12.7013 141.263 13.019C141.175 13.3315 141.089 13.6284 141.005 13.9096C140.922 14.1909 140.862 14.3914 140.826 14.5112L140.005 17.1674H142.982ZM150.638 21.9174H148.255V9.76118H150.638V21.9174ZM155.529 21.9174H153.146V9.76118H155.529V21.9174Z" fill="#59585A"/>
</svg>
