<svg width="162" height="34" viewBox="0 0 162 34" fill="none" xmlns="http://www.w3.org/2000/svg">
<path d="M21.8656 17.0517C21.8656 14.1954 19.5417 11.8715 16.6854 11.8715C13.8292 11.8715 11.5053 14.1954 11.5053 17.0517C11.5053 19.908 13.8292 22.2318 16.6854 22.2318C19.5417 22.2318 21.8656 19.908 21.8656 17.0517ZM16.6855 17.9658C16.1814 17.9658 15.7714 17.5558 15.7714 17.0517C15.7714 16.5476 16.1814 16.1376 16.6855 16.1376C17.1896 16.1376 17.5996 16.5476 17.5996 17.0517C17.5996 17.5558 17.1896 17.9658 16.6855 17.9658Z" fill="#59585A"/>
<path d="M14.7358 20.4991C15.3117 20.826 15.9772 21.013 16.6855 21.013C17.3937 21.013 18.0593 20.826 18.6352 20.4991M18.1407 18.6097C18.7084 18.8575 19.2101 19.2465 19.5905 19.7421C20.2456 19.0352 20.6468 18.0895 20.6468 17.0517C20.6468 14.8673 18.8696 13.0904 16.6855 13.0904C14.5011 13.0904 12.7242 14.8676 12.7242 17.0517C12.7242 18.0895 13.1255 19.0349 13.7807 19.7419C14.1611 19.2465 14.6628 18.8573 15.2303 18.6097C14.8135 18.2201 14.5525 17.6659 14.5525 17.0517C14.5525 15.8755 15.5093 14.9187 16.6855 14.9187M21.8656 17.0517C21.8656 14.1954 19.5417 11.8715 16.6854 11.8715C13.8292 11.8715 11.5053 14.1954 11.5053 17.0517C11.5053 19.908 13.8292 22.2318 16.6854 22.2318C19.5417 22.2318 21.8656 19.908 21.8656 17.0517ZM16.6855 17.9658C16.1814 17.9658 15.7714 17.5558 15.7714 17.0517C15.7714 16.5476 16.1814 16.1376 16.6855 16.1376C17.1896 16.1376 17.5996 16.5476 17.5996 17.0517C17.5996 17.5558 17.1896 17.9658 16.6855 17.9658Z" stroke="#59585A" stroke-width="1.5"/>
<path d="M25.2174 17.0517C25.2174 12.3471 21.39 8.51999 16.6857 8.51999C11.9814 8.51999 8.15402 12.3474 8.15402 17.0517C8.15402 21.756 11.9814 25.5834 16.6857 25.5834C21.39 25.5834 25.2174 21.756 25.2174 17.0517ZM9.37204 17.0517C9.37204 13.0192 12.6527 9.73857 16.6852 9.73857C20.7176 9.73857 23.9983 13.0192 23.9983 17.0517C23.9983 21.0841 20.7176 24.3648 16.6852 24.3648C12.6527 24.3648 9.37204 21.0841 9.37204 17.0517Z" fill="#59585A" stroke="#59585A" stroke-width="1.5"/>
<path d="M4.71728 10.8453C4.81327 10.9008 4.91796 10.9271 5.02134 10.9271C5.23202 10.9271 5.43683 10.8179 5.54958 10.6222C7.48671 7.26708 10.8801 4.94833 14.6942 4.34768C15.0024 5.14736 15.7788 5.71608 16.6855 5.71608C17.8617 5.71608 18.8185 4.75928 18.8185 3.5831C18.8185 2.40693 17.8617 1.45012 16.6855 1.45012C15.6652 1.45012 14.8098 2.17034 14.601 3.12888C12.5873 3.43142 10.6373 4.1769 8.93775 5.29735C7.11947 6.49598 5.58285 8.12638 4.49393 10.0124C4.32568 10.304 4.42558 10.6766 4.71702 10.8449L4.71728 10.8453ZM16.6857 2.66908C17.1898 2.66908 17.5999 3.07914 17.5999 3.58321C17.5999 4.08728 17.1898 4.49733 16.6857 4.49733C16.1817 4.49733 15.7716 4.08728 15.7716 3.58321C15.7716 3.07914 16.1817 2.66908 16.6857 2.66908Z" fill="#59585A" stroke="#59585A" stroke-width="1.5"/>
<path d="M10.2561 28.1877C6.90071 26.2505 4.58163 22.8571 3.98209 19.0431C4.78155 18.7351 5.3505 17.9585 5.3505 17.0518C5.3505 15.8756 4.39369 14.9188 3.21752 14.9188C2.04134 14.9188 1.08453 15.8756 1.08453 17.0518C1.08453 18.0721 1.80476 18.9275 2.76329 19.136C3.06583 21.1497 3.81131 23.0997 4.93177 24.7993C6.1304 26.6176 7.7608 28.1542 9.64677 29.2431C9.74276 29.2986 9.84745 29.3249 9.95083 29.3249C10.1615 29.3249 10.3663 29.2157 10.4791 29.02C10.6473 28.7286 10.5474 28.356 10.256 28.1875L10.2561 28.1877ZM2.30328 17.0517C2.30328 16.5476 2.71334 16.1375 3.2174 16.1375C3.72147 16.1375 4.13153 16.5476 4.13153 17.0517C4.13153 17.5557 3.72147 17.9658 3.2174 17.9658C2.71334 17.9658 2.30328 17.5557 2.30328 17.0517Z" fill="#59585A" stroke="#59585A" stroke-width="1.5"/>
<path d="M28.6539 23.2584C28.3623 23.0902 27.9897 23.1901 27.8214 23.4815C25.8843 26.8369 22.4909 29.156 18.6768 29.7561C18.3688 28.9566 17.5923 28.3877 16.6855 28.3877C15.5094 28.3877 14.5526 29.3445 14.5526 30.5206C14.5526 31.6968 15.5094 32.6536 16.6855 32.6536C17.7059 32.6536 18.5613 31.9334 18.77 30.9749C20.7837 30.6723 22.7337 29.9268 24.4333 28.8064C26.2516 27.6078 27.7882 25.9774 28.8771 24.0914C29.0453 23.7999 28.9454 23.4271 28.654 23.2589L28.6539 23.2584ZM16.6855 31.4347C16.1814 31.4347 15.7714 31.0246 15.7714 30.5205C15.7714 30.0165 16.1814 29.6064 16.6855 29.6064C17.1895 29.6064 17.5996 30.0165 17.5996 30.5205C17.5996 31.0246 17.1895 31.4347 16.6855 31.4347Z" fill="#59585A" stroke="#59585A" stroke-width="1.5"/>
<path d="M30.6081 14.9673C30.3056 12.9536 29.5601 11.0036 28.4397 9.30402C27.241 7.48574 25.6106 5.94912 23.7247 4.8602C23.433 4.69196 23.0604 4.79186 22.8922 5.08329C22.7239 5.37473 22.8238 5.74735 23.1152 5.91579C26.4706 7.85292 28.7897 11.2463 29.3898 15.0604C28.5903 15.3684 28.0214 16.145 28.0214 17.0517C28.0214 18.2279 28.9782 19.1847 30.1544 19.1847C31.3305 19.1847 32.2873 18.2279 32.2873 17.0517C32.2873 16.0314 31.5671 15.176 30.6086 14.9672L30.6081 14.9673ZM30.1539 17.9657C29.6498 17.9657 29.2398 17.5556 29.2398 17.0515C29.2398 16.5475 29.6498 16.1374 30.1539 16.1374C30.658 16.1374 31.068 16.5475 31.068 17.0515C31.068 17.5556 30.658 17.9657 30.1539 17.9657Z" fill="#59585A" stroke="#59585A" stroke-width="1.5"/>
<path d="M51.3638 21.9174H48.981V10.4956H55.5279V12.4799H51.3638V15.4252H55.2388V17.4018H51.3638V21.9174ZM61.1529 13.0034C62.3248 13.0034 63.2232 13.2586 63.8482 13.769C64.4732 14.2794 64.7857 15.0555 64.7857 16.0971V21.9174H63.1216L62.6607 20.7299H62.5982C62.3482 21.0424 62.093 21.2976 61.8326 21.4956C61.5722 21.6935 61.2727 21.8393 60.9341 21.9331C60.5956 22.0268 60.1841 22.0737 59.6998 22.0737C59.1841 22.0737 58.7206 21.9747 58.3091 21.7768C57.9029 21.5789 57.5826 21.2768 57.3482 20.8706C57.1138 20.4591 56.9966 19.9383 56.9966 19.3081C56.9966 18.381 57.3222 17.6987 57.9732 17.2612C58.6242 16.8185 59.6008 16.5737 60.9029 16.5268L62.4185 16.4799V16.0971C62.4185 15.6388 62.2987 15.3029 62.0591 15.0893C61.8196 14.8758 61.4862 14.769 61.0591 14.769C60.6373 14.769 60.2232 14.8289 59.817 14.9487C59.4107 15.0685 59.0045 15.2195 58.5982 15.4018L57.8091 13.7924C58.2727 13.5476 58.7909 13.3549 59.3638 13.2143C59.942 13.0737 60.5383 13.0034 61.1529 13.0034ZM62.4185 17.8706L61.4966 17.9018C60.7258 17.9226 60.1894 18.0607 59.8873 18.3159C59.5904 18.5711 59.442 18.907 59.442 19.3237C59.442 19.6883 59.5487 19.9487 59.7623 20.1049C59.9758 20.256 60.2545 20.3315 60.5982 20.3315C61.1086 20.3315 61.5383 20.1805 61.8873 19.8784C62.2414 19.5763 62.4185 19.1466 62.4185 18.5893V17.8706ZM73.3404 19.3237C73.3404 19.9174 73.1998 20.42 72.9185 20.8315C72.6425 21.2377 72.2284 21.5476 71.6763 21.7612C71.1242 21.9695 70.4367 22.0737 69.6138 22.0737C69.0045 22.0737 68.481 22.0346 68.0435 21.9565C67.6112 21.8784 67.1737 21.7482 66.731 21.5659V19.5971C67.205 19.8107 67.7128 19.9877 68.2545 20.1284C68.8013 20.2638 69.2805 20.3315 69.692 20.3315C70.1555 20.3315 70.4862 20.2638 70.6841 20.1284C70.8873 19.9877 70.9888 19.8055 70.9888 19.5815C70.9888 19.4357 70.9472 19.3055 70.8638 19.1909C70.7857 19.0711 70.6138 18.9383 70.3482 18.7924C70.0826 18.6414 69.6659 18.4461 69.0982 18.2065C68.5513 17.9773 68.1008 17.7456 67.7466 17.5112C67.3977 17.2768 67.1373 17.0008 66.9654 16.6831C66.7987 16.3601 66.7154 15.9513 66.7154 15.4565C66.7154 14.6492 67.0279 14.0424 67.6529 13.6362C68.2831 13.2247 69.1242 13.019 70.1763 13.019C70.718 13.019 71.2336 13.0737 71.7232 13.1831C72.218 13.2924 72.7258 13.4669 73.2466 13.7065L72.5279 15.4252C72.0956 15.2377 71.6867 15.0841 71.3013 14.9643C70.9211 14.8445 70.5331 14.7846 70.1373 14.7846C69.7883 14.7846 69.5253 14.8315 69.3482 14.9252C69.1711 15.019 69.0826 15.1622 69.0826 15.3549C69.0826 15.4956 69.1269 15.6206 69.2154 15.7299C69.3091 15.8393 69.4862 15.9617 69.7466 16.0971C70.0123 16.2273 70.4003 16.3966 70.9107 16.6049C71.4055 16.8081 71.8352 17.0216 72.1998 17.2456C72.5644 17.4643 72.8456 17.7377 73.0435 18.0659C73.2414 18.3888 73.3404 18.8081 73.3404 19.3237ZM77.5826 9.76118V12.2377C77.5826 12.67 77.567 13.0815 77.5357 13.4721C77.5097 13.8627 77.4888 14.1388 77.4732 14.3002H77.5982C77.7857 13.9982 78.0071 13.7534 78.2623 13.5659C78.5227 13.3784 78.8091 13.2404 79.1216 13.1518C79.4341 13.0633 79.7701 13.019 80.1295 13.019C80.7597 13.019 81.3091 13.131 81.7779 13.3549C82.2466 13.5737 82.6112 13.92 82.8716 14.394C83.1321 14.8627 83.2623 15.4721 83.2623 16.2221V21.9174H80.8795V16.8159C80.8795 16.1909 80.7649 15.7195 80.5357 15.4018C80.3065 15.0841 79.9524 14.9252 79.4732 14.9252C78.994 14.9252 78.6164 15.0372 78.3404 15.2612C78.0644 15.4799 77.869 15.8055 77.7545 16.2377C77.6399 16.6648 77.5826 17.1883 77.5826 17.8081V21.9174H75.1998V9.76118H77.5826ZM88.0982 13.1831V21.9174H85.7154V13.1831H88.0982ZM86.9107 9.76118C87.2649 9.76118 87.5696 9.84452 87.8248 10.0112C88.08 10.1726 88.2076 10.4773 88.2076 10.9252C88.2076 11.368 88.08 11.6752 87.8248 11.8471C87.5696 12.0138 87.2649 12.0971 86.9107 12.0971C86.5513 12.0971 86.244 12.0138 85.9888 11.8471C85.7388 11.6752 85.6138 11.368 85.6138 10.9252C85.6138 10.4773 85.7388 10.1726 85.9888 10.0112C86.244 9.84452 86.5513 9.76118 86.9107 9.76118ZM98.5435 17.5346C98.5435 18.2638 98.4446 18.9096 98.2466 19.4721C98.0539 20.0346 97.7701 20.5112 97.3951 20.9018C97.0253 21.2872 96.5774 21.5789 96.0513 21.7768C95.5305 21.9747 94.942 22.0737 94.2857 22.0737C93.6711 22.0737 93.106 21.9747 92.5904 21.7768C92.08 21.5789 91.6347 21.2872 91.2545 20.9018C90.8795 20.5112 90.5878 20.0346 90.3795 19.4721C90.1763 18.9096 90.0748 18.2638 90.0748 17.5346C90.0748 16.5659 90.2466 15.7456 90.5904 15.0737C90.9341 14.4018 91.4237 13.8914 92.0591 13.5424C92.6946 13.1935 93.4524 13.019 94.3326 13.019C95.1503 13.019 95.8742 13.1935 96.5045 13.5424C97.1399 13.8914 97.6373 14.4018 97.9966 15.0737C98.3612 15.7456 98.5435 16.5659 98.5435 17.5346ZM92.5045 17.5346C92.5045 18.1075 92.567 18.5893 92.692 18.9799C92.817 19.3706 93.0123 19.6648 93.2779 19.8627C93.5435 20.0607 93.8899 20.1596 94.317 20.1596C94.7388 20.1596 95.08 20.0607 95.3404 19.8627C95.606 19.6648 95.7987 19.3706 95.9185 18.9799C96.0435 18.5893 96.106 18.1075 96.106 17.5346C96.106 16.9565 96.0435 16.4773 95.9185 16.0971C95.7987 15.7117 95.606 15.4226 95.3404 15.2299C95.0748 15.0372 94.7284 14.9409 94.3013 14.9409C93.6711 14.9409 93.2128 15.157 92.9263 15.5893C92.6451 16.0216 92.5045 16.67 92.5045 17.5346ZM105.473 13.019C106.405 13.019 107.155 13.2742 107.723 13.7846C108.291 14.2898 108.575 15.1023 108.575 16.2221V21.9174H106.192V16.8159C106.192 16.1909 106.077 15.7195 105.848 15.4018C105.624 15.0841 105.27 14.9252 104.786 14.9252C104.057 14.9252 103.559 15.1726 103.294 15.6674C103.028 16.1622 102.895 16.8758 102.895 17.8081V21.9174H100.512V13.1831H102.333L102.653 14.3002H102.786C102.973 13.9982 103.205 13.7534 103.481 13.5659C103.762 13.3784 104.072 13.2404 104.411 13.1518C104.754 13.0633 105.109 13.019 105.473 13.019ZM113.598 21.9174H111.215V10.4956H117.762V12.4799H113.598V15.4252H117.473V17.4018H113.598V21.9174ZM127.747 17.5346C127.747 18.2638 127.648 18.9096 127.45 19.4721C127.257 20.0346 126.973 20.5112 126.598 20.9018C126.228 21.2872 125.78 21.5789 125.254 21.7768C124.734 21.9747 124.145 22.0737 123.489 22.0737C122.874 22.0737 122.309 21.9747 121.794 21.7768C121.283 21.5789 120.838 21.2872 120.458 20.9018C120.083 20.5112 119.791 20.0346 119.583 19.4721C119.379 18.9096 119.278 18.2638 119.278 17.5346C119.278 16.5659 119.45 15.7456 119.794 15.0737C120.137 14.4018 120.627 13.8914 121.262 13.5424C121.898 13.1935 122.655 13.019 123.536 13.019C124.353 13.019 125.077 13.1935 125.708 13.5424C126.343 13.8914 126.84 14.4018 127.2 15.0737C127.564 15.7456 127.747 16.5659 127.747 17.5346ZM121.708 17.5346C121.708 18.1075 121.77 18.5893 121.895 18.9799C122.02 19.3706 122.215 19.6648 122.481 19.8627C122.747 20.0607 123.093 20.1596 123.52 20.1596C123.942 20.1596 124.283 20.0607 124.544 19.8627C124.809 19.6648 125.002 19.3706 125.122 18.9799C125.247 18.5893 125.309 18.1075 125.309 17.5346C125.309 16.9565 125.247 16.4773 125.122 16.0971C125.002 15.7117 124.809 15.4226 124.544 15.2299C124.278 15.0372 123.932 14.9409 123.504 14.9409C122.874 14.9409 122.416 15.157 122.129 15.5893C121.848 16.0216 121.708 16.67 121.708 17.5346ZM134.59 13.019C134.71 13.019 134.848 13.0268 135.004 13.0424C135.166 13.0529 135.296 13.0685 135.395 13.0893L135.215 15.3237C135.137 15.2976 135.025 15.2794 134.879 15.269C134.739 15.2534 134.616 15.2456 134.512 15.2456C134.205 15.2456 133.905 15.2846 133.614 15.3627C133.327 15.4409 133.07 15.5685 132.84 15.7456C132.611 15.9174 132.429 16.1466 132.294 16.4331C132.163 16.7143 132.098 17.0607 132.098 17.4721V21.9174H129.715V13.1831H131.52L131.872 14.6518H131.989C132.161 14.3549 132.374 14.0841 132.629 13.8393C132.89 13.5893 133.184 13.3914 133.512 13.2456C133.846 13.0945 134.205 13.019 134.59 13.019ZM144.161 21.9174L143.333 19.1987H139.169L138.34 21.9174H135.731L139.762 10.4487H142.723L146.77 21.9174H144.161ZM142.754 17.1674L141.926 14.5112C141.874 14.3341 141.804 14.1075 141.715 13.8315C141.632 13.5502 141.546 13.2664 141.458 12.9799C141.374 12.6883 141.307 12.4357 141.254 12.2221C141.202 12.4357 141.129 12.7013 141.036 13.019C140.947 13.3315 140.861 13.6284 140.778 13.9096C140.695 14.1909 140.635 14.3914 140.598 14.5112L139.778 17.1674H142.754ZM150.411 21.9174H148.028V9.76118H150.411V21.9174ZM155.301 21.9174H152.919V9.76118H155.301V21.9174Z" fill="#59585A"/>
</svg>
