<svg width="130" height="23" viewBox="0 0 130 23" fill="none" xmlns="http://www.w3.org/2000/svg">
<path d="M0.053244 20.6832L5.60894 20.9116L5.85762 14.8614C5.92525 13.2161 5.1242 11.6566 3.74875 10.7559L0.547449 8.65961L0.053244 20.6832Z" fill="#59585A"/>
<path d="M22.1879 2.3047L16.6322 2.07634L15.9772 18.0119L21.3964 21.5606L22.1879 2.3047Z" fill="#59585A"/>
<path d="M13.1915 9.57441L0.843933 1.445L0.577475 7.92772L15.3498 17.6493L15.4969 14.0695C15.5709 12.2689 14.6955 10.562 13.1915 9.57441Z" fill="#59585A"/>
<path d="M40.3269 17.0519H37.2488L32.28 8.41125H32.2097C32.2306 8.77062 32.2488 9.1326 32.2644 9.49718C32.28 9.86177 32.2957 10.2264 32.3113 10.5909C32.3269 10.9503 32.3425 11.3123 32.3582 11.6769V17.0519H30.1941V5.63H33.2488L38.2097 14.1847H38.2644C38.254 13.8305 38.241 13.479 38.2253 13.13C38.2097 12.781 38.1941 12.4321 38.1785 12.0831C38.1681 11.7342 38.1576 11.3852 38.1472 11.0362V5.63H40.3269V17.0519ZM46.6238 8.15343C47.4311 8.15343 48.1264 8.30968 48.7097 8.62218C49.2931 8.92948 49.7436 9.37739 50.0613 9.96593C50.379 10.5545 50.5378 11.2732 50.5378 12.1222V13.2784H44.905C44.9311 13.9503 45.1316 14.479 45.5066 14.8644C45.8868 15.2446 46.4128 15.4347 47.0847 15.4347C47.642 15.4347 48.1524 15.3774 48.616 15.2628C49.0795 15.1482 49.5561 14.9764 50.0457 14.7472V16.5909C49.6134 16.8045 49.1602 16.9607 48.6863 17.0597C48.2175 17.1586 47.6472 17.2081 46.9753 17.2081C46.1003 17.2081 45.3243 17.0467 44.6472 16.7237C43.9753 16.4008 43.4467 15.9086 43.0613 15.2472C42.6811 14.5857 42.491 13.7524 42.491 12.7472C42.491 11.7264 42.6628 10.8774 43.0066 10.2003C43.3556 9.51802 43.8399 9.0076 44.4597 8.66906C45.0795 8.32531 45.8009 8.15343 46.6238 8.15343ZM46.6394 9.84875C46.1759 9.84875 45.7904 9.99718 45.4832 10.2941C45.1811 10.5909 45.0066 11.0571 44.9597 11.6925H48.3035C48.2983 11.3383 48.2332 11.0232 48.1082 10.7472C47.9884 10.4711 47.8061 10.2524 47.5613 10.0909C47.3217 9.92948 47.0144 9.84875 46.6394 9.84875ZM54.2644 12.5909L51.4519 8.3175H54.155L55.8503 11.0987L57.5613 8.3175H60.2644L57.4207 12.5909L60.3972 17.0519H57.6863L55.8503 14.0597L54.0066 17.0519H51.3035L54.2644 12.5909ZM65.405 15.3097C65.6654 15.3097 65.9181 15.2836 66.1628 15.2316C66.4128 15.1795 66.6602 15.1144 66.905 15.0362V16.8097C66.6498 16.9243 66.3321 17.018 65.9519 17.0909C65.5769 17.1691 65.1654 17.2081 64.7175 17.2081C64.1967 17.2081 63.7279 17.1248 63.3113 16.9581C62.8998 16.7862 62.5743 16.492 62.3347 16.0753C62.1003 15.6534 61.9832 15.0675 61.9832 14.3175V10.1066H60.8425V9.09875L62.155 8.30187L62.8425 6.45812H64.366V8.3175H66.8113V10.1066H64.366V14.3175C64.366 14.6508 64.4597 14.9008 64.6472 15.0675C64.8399 15.229 65.0925 15.3097 65.405 15.3097ZM71.2488 17.0519H68.866V5.63H75.4128V7.61437H71.2488V10.5597H75.1238V12.5362H71.2488V17.0519ZM81.0378 8.13781C82.2097 8.13781 83.1082 8.39302 83.7332 8.90343C84.3582 9.41385 84.6707 10.1899 84.6707 11.2316V17.0519H83.0066L82.5457 15.8644H82.4832C82.2332 16.1769 81.9779 16.4321 81.7175 16.63C81.4571 16.8279 81.1576 16.9737 80.8191 17.0675C80.4806 17.1612 80.0691 17.2081 79.5847 17.2081C79.0691 17.2081 78.6056 17.1092 78.1941 16.9112C77.7878 16.7133 77.4675 16.4112 77.2332 16.005C76.9988 15.5935 76.8816 15.0727 76.8816 14.4425C76.8816 13.5154 77.2071 12.8331 77.8582 12.3956C78.5092 11.9529 79.4858 11.7081 80.7878 11.6612L82.3035 11.6144V11.2316C82.3035 10.7732 82.1837 10.4373 81.9441 10.2237C81.7045 10.0102 81.3712 9.90343 80.9441 9.90343C80.5222 9.90343 80.1082 9.96333 79.7019 10.0831C79.2957 10.2029 78.8894 10.354 78.4832 10.5362L77.6941 8.92687C78.1576 8.68208 78.6759 8.48937 79.2488 8.34875C79.8269 8.20812 80.4233 8.13781 81.0378 8.13781ZM82.3035 13.005L81.3816 13.0362C80.6108 13.0571 80.0743 13.1951 79.7722 13.4503C79.4753 13.7055 79.3269 14.0415 79.3269 14.4581C79.3269 14.8227 79.4337 15.0831 79.6472 15.2394C79.8608 15.3904 80.1394 15.4659 80.4832 15.4659C80.9936 15.4659 81.4233 15.3149 81.7722 15.0128C82.1264 14.7107 82.3035 14.281 82.3035 13.7237V13.005ZM93.2253 14.4581C93.2253 15.0519 93.0847 15.5545 92.8035 15.9659C92.5274 16.3722 92.1134 16.6821 91.5613 16.8956C91.0092 17.104 90.3217 17.2081 89.4988 17.2081C88.8894 17.2081 88.366 17.1691 87.9285 17.0909C87.4962 17.0128 87.0587 16.8826 86.616 16.7003V14.7316C87.0899 14.9451 87.5977 15.1222 88.1394 15.2628C88.6863 15.3982 89.1654 15.4659 89.5769 15.4659C90.0404 15.4659 90.3712 15.3982 90.5691 15.2628C90.7722 15.1222 90.8738 14.9399 90.8738 14.7159C90.8738 14.5701 90.8321 14.4399 90.7488 14.3253C90.6707 14.2055 90.4988 14.0727 90.2332 13.9269C89.9675 13.7758 89.5509 13.5805 88.9832 13.3409C88.4363 13.1118 87.9858 12.88 87.6316 12.6456C87.2826 12.4112 87.0222 12.1352 86.8503 11.8175C86.6837 11.4946 86.6003 11.0857 86.6003 10.5909C86.6003 9.78364 86.9128 9.17687 87.5378 8.77062C88.1681 8.35916 89.0092 8.15343 90.0613 8.15343C90.6029 8.15343 91.1186 8.20812 91.6082 8.3175C92.1029 8.42687 92.6108 8.60135 93.1316 8.84093L92.4128 10.5597C91.9806 10.3722 91.5717 10.2185 91.1863 10.0987C90.8061 9.97896 90.4181 9.91906 90.0222 9.91906C89.6733 9.91906 89.4102 9.96593 89.2332 10.0597C89.0561 10.1534 88.9675 10.2967 88.9675 10.4894C88.9675 10.63 89.0118 10.755 89.1003 10.8644C89.1941 10.9737 89.3712 11.0961 89.6316 11.2316C89.8972 11.3618 90.2852 11.531 90.7957 11.7394C91.2904 11.9425 91.7201 12.156 92.0847 12.38C92.4493 12.5987 92.7306 12.8722 92.9285 13.2003C93.1264 13.5232 93.2253 13.9425 93.2253 14.4581ZM97.4675 4.89562V7.37218C97.4675 7.80448 97.4519 8.21593 97.4207 8.60656C97.3946 8.99718 97.3738 9.27323 97.3582 9.43468H97.4832C97.6707 9.1326 97.892 8.88781 98.1472 8.70031C98.4076 8.51281 98.6941 8.37479 99.0066 8.28625C99.3191 8.19771 99.655 8.15343 100.014 8.15343C100.645 8.15343 101.194 8.26541 101.663 8.48937C102.132 8.70812 102.496 9.05448 102.757 9.52843C103.017 9.99718 103.147 10.6066 103.147 11.3566V17.0519H100.764V11.9503C100.764 11.3253 100.65 10.854 100.421 10.5362C100.191 10.2185 99.8373 10.0597 99.3582 10.0597C98.879 10.0597 98.5014 10.1717 98.2253 10.3956C97.9493 10.6144 97.754 10.9399 97.6394 11.3722C97.5248 11.7993 97.4675 12.3227 97.4675 12.9425V17.0519H95.0847V4.89562H97.4675ZM107.983 8.3175V17.0519H105.6V8.3175H107.983ZM106.796 4.89562C107.15 4.89562 107.455 4.97896 107.71 5.14562C107.965 5.30708 108.093 5.61177 108.093 6.05968C108.093 6.50239 107.965 6.80968 107.71 6.98156C107.455 7.14823 107.15 7.23156 106.796 7.23156C106.436 7.23156 106.129 7.14823 105.874 6.98156C105.624 6.80968 105.499 6.50239 105.499 6.05968C105.499 5.61177 105.624 5.30708 105.874 5.14562C106.129 4.97896 106.436 4.89562 106.796 4.89562ZM118.428 12.6691C118.428 13.3982 118.33 14.0441 118.132 14.6066C117.939 15.1691 117.655 15.6456 117.28 16.0362C116.91 16.4217 116.462 16.7133 115.936 16.9112C115.415 17.1092 114.827 17.2081 114.171 17.2081C113.556 17.2081 112.991 17.1092 112.475 16.9112C111.965 16.7133 111.52 16.4217 111.139 16.0362C110.764 15.6456 110.473 15.1691 110.264 14.6066C110.061 14.0441 109.96 13.3982 109.96 12.6691C109.96 11.7003 110.132 10.88 110.475 10.2081C110.819 9.53625 111.309 9.02583 111.944 8.67687C112.58 8.32791 113.337 8.15343 114.218 8.15343C115.035 8.15343 115.759 8.32791 116.389 8.67687C117.025 9.02583 117.522 9.53625 117.882 10.2081C118.246 10.88 118.428 11.7003 118.428 12.6691ZM112.389 12.6691C112.389 13.242 112.452 13.7237 112.577 14.1144C112.702 14.505 112.897 14.7993 113.163 14.9972C113.428 15.1951 113.775 15.2941 114.202 15.2941C114.624 15.2941 114.965 15.1951 115.225 14.9972C115.491 14.7993 115.684 14.505 115.803 14.1144C115.928 13.7237 115.991 13.242 115.991 12.6691C115.991 12.0909 115.928 11.6118 115.803 11.2316C115.684 10.8461 115.491 10.5571 115.225 10.3644C114.96 10.1717 114.613 10.0753 114.186 10.0753C113.556 10.0753 113.098 10.2915 112.811 10.7237C112.53 11.156 112.389 11.8045 112.389 12.6691ZM125.358 8.15343C126.29 8.15343 127.04 8.40864 127.608 8.91906C128.176 9.42427 128.46 10.2368 128.46 11.3566V17.0519H126.077V11.9503C126.077 11.3253 125.962 10.854 125.733 10.5362C125.509 10.2185 125.155 10.0597 124.671 10.0597C123.941 10.0597 123.444 10.3071 123.178 10.8019C122.913 11.2967 122.78 12.0102 122.78 12.9425V17.0519H120.397V8.3175H122.218L122.538 9.43468H122.671C122.858 9.1326 123.09 8.88781 123.366 8.70031C123.647 8.51281 123.957 8.37479 124.296 8.28625C124.639 8.19771 124.994 8.15343 125.358 8.15343Z" fill="#59585A"/>
</svg>
