<svg width="121" height="44" viewBox="0 0 121 44" fill="none" xmlns="http://www.w3.org/2000/svg">
<path d="M17.4588 17.59L10.9536 35.913H7.15886L0.653657 17.59H4.8459L7.99008 26.7334L9.1827 30.5281L10.3392 26.7334L13.3388 17.59H17.4588ZM25.1936 14.1205H20.8206V9.81986H25.1936V14.1205ZM25.0852 35.913H20.9291V17.59H25.0852V35.913ZM46.2429 27.7092C46.2429 30.3354 45.5924 32.4194 44.2913 33.9614C42.9903 35.5034 41.0869 36.2744 38.5812 36.2744C35.9791 36.2744 33.3409 35.5516 30.6665 34.106V9.16934H34.8226V20.0113C35.9309 18.9031 36.8826 18.1682 37.6777 17.8068C38.4728 17.4213 39.292 17.2286 40.1352 17.2286C42.0627 17.2286 43.5565 17.9755 44.6166 19.4692C45.7008 20.963 46.2429 23.0592 46.2429 25.7576V27.7092ZM39.0149 21.0956C38.4366 21.0956 37.8223 21.2642 37.1717 21.6015C36.5453 21.9388 35.7623 22.6014 34.8226 23.5892V31.793C35.4732 32.058 36.0634 32.2508 36.5935 32.3712C37.1477 32.4917 37.6898 32.5519 38.2198 32.5519C39.569 32.5519 40.5328 32.1183 41.111 31.2509C41.6892 30.3835 41.9784 29.203 41.9784 27.7092V25.7576C41.9784 24.1434 41.7133 22.9628 41.1833 22.2159C40.6773 21.469 39.9545 21.0956 39.0149 21.0956ZM64.9479 34.8649C63.695 35.3709 62.5145 35.7323 61.4062 35.9491C60.2979 36.1659 59.2498 36.2744 58.262 36.2744C55.5394 36.2744 53.4795 35.5034 52.082 33.9614C50.6846 32.4194 49.9859 30.3715 49.9859 27.8176V25.6492C49.9859 23.9386 50.2991 22.4568 50.9256 21.204C51.552 19.9511 52.4434 18.9753 53.5999 18.2766C54.7564 17.5779 56.1177 17.2286 57.6838 17.2286C58.9607 17.2286 60.1533 17.4936 61.2616 18.0236C62.394 18.5296 63.3096 19.3367 64.0083 20.445C64.7311 21.5292 65.0925 22.9266 65.0925 24.6373C65.0925 25.1432 65.0563 25.6853 64.984 26.2636C64.9118 26.8177 64.7913 27.408 64.6226 28.0344H53.9975C54.0457 29.5282 54.4191 30.6486 55.1178 31.3955C55.8165 32.1424 56.9369 32.5158 58.4788 32.5158C59.298 32.5158 60.1413 32.4194 61.0086 32.2267C61.9001 32.0339 62.8156 31.7448 63.7553 31.3593L64.9479 34.8649ZM57.6838 20.7342C56.5755 20.7342 55.7081 21.0956 55.0817 21.8184C54.4793 22.5171 54.13 23.529 54.0336 24.8541H60.9725C60.9966 24.7336 61.0086 24.6252 61.0086 24.5289C61.0086 24.4084 61.0086 24.3 61.0086 24.2036C61.0086 23.0471 60.6834 22.1798 60.0329 21.6015C59.3823 21.0233 58.5993 20.7342 57.6838 20.7342Z" fill="#F15025"/>
<path d="M67.9789 36.2744V32.1183C69.9305 32.1183 71.3399 31.7569 72.2073 31.0341C73.0988 30.2872 73.5445 28.9741 73.5445 27.0948V11.3377H77.8813V27.0948C77.8813 28.9741 77.5922 30.6004 77.0139 31.9737C76.4357 33.347 75.4238 34.4071 73.9782 35.154C72.5567 35.9009 70.5569 36.2744 67.9789 36.2744ZM98.4803 25.6492V27.8176C98.4803 30.3715 97.7815 32.4194 96.3841 33.9614C94.9867 35.5034 93.0111 36.2744 90.4572 36.2744C87.9033 36.2744 85.9276 35.5034 84.5302 33.9614C83.1328 32.4194 82.4341 30.3715 82.4341 27.8176V25.6492C82.4341 23.0953 83.1207 21.0594 84.4941 19.5415C85.8915 17.9996 87.8792 17.2286 90.4572 17.2286C93.0352 17.2286 95.0108 17.9996 96.3841 19.5415C97.7815 21.0594 98.4803 23.0953 98.4803 25.6492ZM94.2157 25.6492C94.2157 24.1795 93.8905 23.0351 93.24 22.2159C92.5894 21.3726 91.6618 20.951 90.4572 20.951C89.2525 20.951 88.3249 21.3726 87.6744 22.2159C87.0239 23.0351 86.6986 24.1795 86.6986 25.6492V27.8176C86.6986 29.2873 87.0239 30.4438 87.6744 31.287C88.3249 32.1303 89.2525 32.5519 90.4572 32.5519C91.6618 32.5519 92.5894 32.1303 93.24 31.287C93.8905 30.4438 94.2157 29.2873 94.2157 27.8176V25.6492ZM117.054 34.8649C115.801 35.3709 114.621 35.7323 113.513 35.9491C112.404 36.1659 111.356 36.2744 110.368 36.2744C107.646 36.2744 105.586 35.5034 104.188 33.9614C102.791 32.4194 102.092 30.3715 102.092 27.8176V25.6492C102.092 23.9386 102.405 22.4568 103.032 21.204C103.658 19.9511 104.55 18.9753 105.706 18.2766C106.863 17.5779 108.224 17.2286 109.79 17.2286C111.067 17.2286 112.26 17.4936 113.368 18.0236C114.5 18.5296 115.416 19.3367 116.115 20.445C116.837 21.5292 117.199 22.9266 117.199 24.6373C117.199 25.1432 117.163 25.6853 117.09 26.2636C117.018 26.8177 116.898 27.408 116.729 28.0344H106.104C106.152 29.5282 106.525 30.6486 107.224 31.3955C107.923 32.1424 109.043 32.5158 110.585 32.5158C111.404 32.5158 112.248 32.4194 113.115 32.2267C114.006 32.0339 114.922 31.7448 115.862 31.3593L117.054 34.8649ZM109.79 20.7342C108.682 20.7342 107.814 21.0956 107.188 21.8184C106.586 22.5171 106.236 23.529 106.14 24.8541H113.079C113.103 24.7336 113.115 24.6252 113.115 24.5289C113.115 24.4084 113.115 24.3 113.115 24.2036C113.115 23.0471 112.79 22.1798 112.139 21.6015C111.489 21.0233 110.706 20.7342 109.79 20.7342Z" fill="#191919"/>
</svg>
