<svg width="61" height="61" viewBox="0 0 61 61" fill="none" xmlns="http://www.w3.org/2000/svg">
<g clip-path="url(#clip0_106_82)">
<mask id="mask0_106_82" style="mask-type:luminance" maskUnits="userSpaceOnUse" x="8" y="19" width="48" height="33">
<path d="M16.896 25.2847L15.6049 22.7861C15.2625 22.1234 14.6709 21.6239 13.9602 21.3974C13.2494 21.1709 12.4779 21.2361 11.8152 21.5785C11.1525 21.9209 10.653 22.5125 10.4265 23.2233C10.2001 23.934 10.2652 24.7055 10.6076 25.3682L13.6201 31.1984" stroke="white" stroke-width="4" stroke-linecap="round" stroke-linejoin="round"/>
<path d="M14.5643 39.1526C11.7123 33.6331 13.8751 26.8456 19.3946 23.9937C24.9142 21.1417 31.7016 23.3045 34.5536 28.824L39.7179 38.8186L19.7286 49.1472L14.5643 39.1526ZM34.5536 28.824L47.8797 21.9383L53.044 31.9329L39.7179 38.8186L34.5536 28.824Z" fill="#555555"/>
<path d="M34.5536 28.824C31.7016 23.3045 24.9142 21.1417 19.3946 23.9937C13.8751 26.8456 11.7123 33.6331 14.5643 39.1526L19.7286 49.1472L39.7179 38.8186M34.5536 28.824L39.7179 38.8186M34.5536 28.824L47.8797 21.9383L53.044 31.9329L39.7179 38.8186" stroke="white" stroke-width="4" stroke-linejoin="round"/>
<path d="M26.2804 37.3198C28.1203 36.3691 28.8412 34.1068 27.8905 32.2669C26.9398 30.4269 24.6775 29.706 22.8375 30.6567C20.9976 31.6075 20.2767 33.8698 21.2274 35.7097C22.1781 37.5497 24.4404 38.2705 26.2804 37.3198Z" fill="#555555" stroke="white" stroke-width="4"/>
<path d="M43.7153 24.09L45.4367 27.4216M38.718 26.6722L40.4394 30.0037M36.2193 27.9633L46.214 22.799" stroke="white" stroke-width="4" stroke-linecap="round" stroke-linejoin="round"/>
</mask>
<g mask="url(#mask0_106_82)">
<path d="M-0.38689 18.3861L39.5916 -2.27108L60.2488 37.7074L20.2703 58.3646L-0.38689 18.3861Z" fill="#F15025"/>
</g>
</g>
<defs>
<clipPath id="clip0_106_82">
<rect width="45" height="45" fill="white" transform="translate(0 21) rotate(-27.3257)"/>
</clipPath>
</defs>
</svg>
