<svg width="23" height="26" viewBox="0 0 23 26" fill="none" xmlns="http://www.w3.org/2000/svg">
<path fill-rule="evenodd" clip-rule="evenodd" d="M19.4961 1.78753C19.4961 1.28854 19.0916 0.884033 18.5926 0.884033C18.0936 0.884033 17.6891 1.28854 17.6891 1.78753V3.78814H15.6205C15.1215 3.78814 14.717 4.19265 14.717 4.69164C14.717 5.19063 15.1215 5.59514 15.6205 5.59514H17.6891V7.59575C17.6891 8.09474 18.0936 8.49925 18.5926 8.49925C19.0916 8.49925 19.4961 8.09474 19.4961 7.59575V5.59514H21.5646C22.0636 5.59514 22.4681 5.19063 22.4681 4.69164C22.4681 4.19265 22.0636 3.78814 21.5646 3.78814H19.4961V1.78753ZM9.67643 15.7273C9.0936 15.7273 8.51628 15.7796 7.95104 15.8814C6.51429 15.2433 5.53936 13.8343 5.53936 12.2424C5.53936 10.0717 7.35198 8.24113 9.67645 8.24113C12.0009 8.24113 13.8135 10.0717 13.8135 12.2424C13.8135 13.8343 12.8386 15.2433 11.4018 15.8815C10.8366 15.7796 10.2593 15.7273 9.67643 15.7273ZM3.73236 12.2424C3.73236 13.9628 4.49791 15.5086 5.71431 16.5721C4.69608 17.0281 3.75869 17.6604 2.95147 18.4492C1.61018 19.7598 0.710897 21.4216 0.347377 23.2134C0.227508 23.8043 0.165894 24.4092 0.165894 25.0204L1.9729 25.0204L9.67643 25.0204H11.959C15.9509 25.0204 19.2987 21.3415 16.474 18.5209L16.4355 18.4827L16.4014 18.4492C15.5942 17.6604 14.6568 17.0281 13.6386 16.5721C14.855 15.5086 15.6205 13.9628 15.6205 12.2424C15.6205 9.03456 12.9593 6.43413 9.67645 6.43413C6.39362 6.43413 3.73236 9.03456 3.73236 12.2424ZM4.21435 19.7416C5.21021 18.7685 6.45531 18.0865 7.80795 17.7578C8.39552 17.9478 9.02369 18.0506 9.67645 18.0506C10.3292 18.0506 10.9574 17.9478 11.5449 17.7578C12.8976 18.0865 14.1427 18.7685 15.1385 19.7416C15.1582 19.7608 15.1777 19.7801 15.1971 19.7995C15.624 20.2258 15.7091 20.5609 15.7153 20.7775C15.7221 21.0194 15.6345 21.346 15.3427 21.7237C14.7322 22.5139 13.4466 23.2134 11.959 23.2134H9.67643H2.20073C2.53337 21.9141 3.22225 20.711 4.21435 19.7416Z" fill="#191919"/>
</svg>
