<svg width="20" height="21" viewBox="0 0 20 21" fill="none" xmlns="http://www.w3.org/2000/svg">
<path d="M14.3076 12.75H13.4188L13.1038 12.4463C14.2444 11.1233 14.8713 9.43428 14.8701 7.6875C14.8701 6.24123 14.4412 4.82743 13.6377 3.6249C12.8342 2.42236 11.6921 1.4851 10.3559 0.931634C9.01975 0.378168 7.54945 0.233357 6.13096 0.515511C4.71247 0.797665 3.40951 1.49411 2.38684 2.51678C1.36417 3.53946 0.667722 4.84242 0.385567 6.2609C0.103413 7.67939 0.248225 9.14969 0.80169 10.4859C1.35516 11.8221 2.29242 12.9641 3.49495 13.7676C4.69749 14.5711 6.11128 15 7.55756 15C9.36881 15 11.0338 14.3363 12.3163 13.2338L12.6201 13.5488V14.4375L18.2451 20.0513L19.9213 18.375L14.3076 12.75ZM7.55756 12.75C4.75631 12.75 2.49506 10.4888 2.49506 7.6875C2.49506 4.88625 4.75631 2.625 7.55756 2.625C10.3588 2.625 12.6201 4.88625 12.6201 7.6875C12.6201 10.4888 10.3588 12.75 7.55756 12.75Z" fill="#555555"/>
</svg>
