<svg width="45" height="45" viewBox="0 0 45 45" fill="none" xmlns="http://www.w3.org/2000/svg">
<path d="M36.8921 15.1172H8.10791C8.09473 15.1172 8.08594 15.126 8.08594 15.1392V19.147C8.08594 21.7749 10.2393 23.9062 12.8892 23.9062C14.6777 23.9062 16.2378 22.9395 17.0684 21.5024C17.1958 21.2783 17.4375 21.1377 17.6968 21.1377C17.9561 21.1377 18.1934 21.2783 18.3252 21.5024C19.1514 22.9395 20.7114 23.9062 22.5 23.9062C24.293 23.9062 25.8574 22.9351 26.6792 21.4937C26.8066 21.2739 27.0396 21.1377 27.29 21.1377H27.3164C27.5713 21.1377 27.7998 21.2739 27.9272 21.4937C28.7534 22.9351 30.3179 23.9062 32.1108 23.9062C34.7607 23.9062 36.9141 21.7749 36.9141 19.147V15.1392C36.9141 15.126 36.9053 15.1172 36.8921 15.1172Z" fill="white"/>
<path d="M38.7598 11.9575V6.32812C38.7598 5.55029 38.1314 4.92188 37.3535 4.92188H7.64651C6.86868 4.92188 6.24026 5.55029 6.24026 6.32812V11.9575C5.50637 12.0015 4.9219 12.6123 4.9219 13.3594V19.147C4.91909 20.2106 5.13446 21.2636 5.55471 22.2407C5.74368 22.689 5.97659 23.1108 6.24026 23.5107V38.6719C6.24026 39.4453 6.86868 40.0781 7.64651 40.0781H37.3535C38.1314 40.0781 38.7598 39.4497 38.7598 38.6719V23.5107C39.0276 23.1098 39.2571 22.6846 39.4453 22.2407C39.8628 21.2607 40.0782 20.2192 40.0782 19.147V13.3594C40.0782 12.6123 39.4937 12.0015 38.7598 11.9575ZM9.40432 8.08594H35.5957V11.9531H9.40432V8.08594ZM25.3125 36.9185H19.6875V32.3438H25.3125V36.9185ZM35.6133 36.9185H28.125V30.9375C28.125 30.1597 27.4966 29.5312 26.7188 29.5312H18.2813C17.5034 29.5312 16.875 30.1597 16.875 30.9375V36.9185H9.40432V26.2749C9.53177 26.3364 9.6636 26.398 9.79983 26.4507C10.7798 26.8638 11.8213 27.0703 12.8936 27.0703C13.9658 27.0703 15.003 26.8638 15.9873 26.4507C16.5938 26.1958 17.1651 25.8706 17.688 25.4795C17.6968 25.4751 17.7056 25.4751 17.7144 25.4795C18.239 25.8723 18.8102 26.1985 19.4151 26.4507C20.395 26.8638 21.4366 27.0703 22.5088 27.0703C23.5811 27.0703 24.6182 26.8638 25.6026 26.4507C26.209 26.1958 26.7803 25.8706 27.3032 25.4795C27.312 25.4751 27.3208 25.4751 27.3296 25.4795C27.8542 25.8723 28.4254 26.1985 29.0303 26.4507C30.0103 26.8638 31.0518 27.0703 32.1241 27.0703C33.1963 27.0703 34.2334 26.8638 35.2178 26.4507C35.3496 26.3936 35.4815 26.3364 35.6133 26.2749V36.9185ZM36.9141 19.147C36.9141 21.7749 34.7608 23.9062 32.1109 23.9062C30.3179 23.9062 28.7534 22.9351 27.9273 21.4937C27.7998 21.2739 27.5713 21.1377 27.3164 21.1377H27.2901C27.0396 21.1377 26.8067 21.2739 26.6792 21.4937C26.2576 22.2289 25.6488 22.8395 24.9148 23.2632C24.1808 23.687 23.3476 23.9088 22.5 23.9062C20.7115 23.9062 19.1514 22.9395 18.3252 21.5024C18.1934 21.2783 17.9561 21.1377 17.6968 21.1377C17.4375 21.1377 17.1958 21.2783 17.0684 21.5024C16.6443 22.2349 16.0348 22.8427 15.3011 23.2647C14.5674 23.6867 13.7356 23.908 12.8892 23.9062C10.2393 23.9063 8.08596 21.7749 8.08596 19.147V15.1392C8.08596 15.126 8.09475 15.1172 8.10794 15.1172H36.8921C36.9053 15.1172 36.9141 15.126 36.9141 15.1392V19.147Z" fill="#F15025"/>
</svg>
